<svg width="3017" height="270" viewBox="0 0 3017 270" fill="none" xmlns="http://www.w3.org/2000/svg">
<g clip-path="url(#clip0_829_2005)">
<path fill-rule="evenodd" clip-rule="evenodd" d="M1470.56 48.1091V5.10544H1325.92V116.836H1187.01V144.131L1171.83 154.735V169.855H1249.67C1241.59 196.56 1218.34 211.484 1187.4 211.484C1143.46 211.484 1116.07 176.727 1116.07 133.724C1116.07 92.0945 1145.23 58.32 1187.2 58.32C1212.23 58.32 1232.13 70.4945 1244.54 91.8982H1319.03C1304.25 39.6654 1247.7 0 1188.98 0C1127.1 0 1073.11 36.9164 1055.58 93.4691V4.90909H991.931L994.69 168.873L893.408 4.90909H836.068V225.425L747.988 5.10544H695.574L591.139 264.502H662.47L676.263 226.996H758.628V204.807L810.452 248.793V264.502H899.714L897.94 106.036L997.843 264.502H1055.38V173.978C1072.52 229.942 1124.74 269.804 1187.6 269.804C1269.37 269.804 1319.62 210.109 1325.92 145.505V264.502H1470.56V206.378H1389.77V161.804H1468.19V103.68H1389.77V63.4255H1457.16C1458.14 55.5709 1462.87 50.0727 1470.56 48.1091ZM1054.79 158.858C1038.24 158.858 1029.37 148.647 1029.76 133.331C1029.96 118.8 1039.03 109.571 1054.2 109.178C1070.36 108.785 1079.22 117.425 1080.21 133.527C1079.62 149.825 1071.14 158.858 1054.79 158.858ZM694.588 174.371L721.387 85.6145L722.372 86.0073L749.17 174.371H694.588Z" fill="white" fill-opacity="0.04"/>
<path d="M26.9953 177.906L0 200.88V5.10547H144.435V63.2291H63.646V103.484H142.07V161.607H63.646V206.182H144.435V264.306H26.9953V177.906Z" fill="white" fill-opacity="0.04"/>
<path d="M328.673 46.7346L314.092 56.7491L316.062 169.069L214.781 5.10547H157.44V264.306H221.086L219.313 106.036L319.215 264.306H376.95V5.10547H328.673V46.7346Z" fill="white" fill-opacity="0.04"/>
<path fill-rule="evenodd" clip-rule="evenodd" d="M481.581 5.10553C513.897 5.10553 539.513 10.6037 557.838 20.8147C594.686 41.8256 617.937 81.6874 617.74 134.902C617.74 220.32 567.099 264.502 485.916 264.502H392.91V5.10553H481.581ZM471.138 223.266C481.778 222.873 489.463 217.178 490.645 206.182C528.084 205.397 551.336 181.637 551.336 134.902C551.336 88.5601 527.887 63.0328 489.463 63.0328H459.118V184.582C453.404 188.117 450.054 194.4 449.463 203.433C451.039 215.804 458.133 223.855 471.138 223.266Z" fill="white" fill-opacity="0.04"/>
<path fill-rule="evenodd" clip-rule="evenodd" d="M1630.16 14.5309C1658.34 27.0982 1678.05 57.7309 1678.05 94.4509C1678.05 135.295 1653.42 169.069 1613.42 176.138L1684.15 264.502H1608.09L1548 180.655H1547.21V264.502H1483.56V87.1855C1492.82 84.8291 1498.14 77.9564 1498.14 67.7455C1498.14 57.5346 1493.02 50.2691 1483.56 48.1091V5.10547H1568.69C1595.68 5.10547 1616.37 8.64002 1630.16 14.5309ZM1547.21 135.295H1571.84C1598.24 135.295 1614.4 123.12 1614.2 98.1818C1614.2 75.6 1597.45 63.0327 1572.43 63.0327H1547.21V135.295Z" fill="white" fill-opacity="0.04"/>
<path d="M1791.94 5.10547H1689.28V264.306H1833.71V206.182H1752.92V161.607H1831.35V103.484H1752.92V63.2291H1833.71V52.0364L1791.94 22.7782V5.10547Z" fill="white" fill-opacity="0.04"/>
<path fill-rule="evenodd" clip-rule="evenodd" d="M2072.53 134.706C2072.53 151.004 2070.76 165.731 2067.21 179.084L2016.77 222.087V246.829C1996.28 258.611 1970.46 264.502 1940.71 264.502H1847.51V5.10553H1936.18C1968.49 5.10553 1994.11 10.6037 2012.43 20.8147C2049.28 41.8256 2072.53 81.6874 2072.53 134.706ZM1913.91 206.182H1943.86C1982.09 206.182 2006.13 182.422 2005.93 135.098C2005.93 88.7565 1982.48 63.2292 1944.06 63.2292H1913.91V206.182Z" fill="white" fill-opacity="0.04"/>
<path d="M2210.66 5.30188H2160.42V93.6656L2144.26 79.9201V264.502H2287.71V206.378H2210.66V5.30188Z" fill="white" fill-opacity="0.04"/>
<path fill-rule="evenodd" clip-rule="evenodd" d="M2408.3 5.30182H2460.71L2563.97 264.698H2514.71L2478.25 213.055H2429.19L2417.17 227.193H2388.99L2375.2 264.698H2303.87L2408.3 5.30182ZM2434.11 85.811L2407.31 174.371V174.567H2461.9L2435.1 86.2037L2434.11 85.811Z" fill="white" fill-opacity="0.04"/>
<path fill-rule="evenodd" clip-rule="evenodd" d="M2720.03 125.476C2739.73 114.676 2750.18 95.0401 2750.18 72.851C2750.18 37.7019 2725.54 14.9237 2695.99 8.44366C2686.92 6.28365 2673.13 5.30182 2654.41 5.30182H2595.69V54L2571.26 71.28V264.698H2657.76C2698.94 264.698 2712.34 261.556 2732.64 247.222C2752.34 233.476 2762.79 210.698 2762.79 185.956C2762.98 155.913 2748.4 135.295 2720.03 125.476ZM2668.99 206.378H2634.9V159.055H2669.39C2689.09 159.055 2699.34 166.516 2699.34 181.44C2699.34 198.327 2687.71 206.378 2668.99 206.378ZM2634.9 63.4255H2661.7C2678.25 63.4255 2686.73 69.3164 2686.73 83.0619C2686.73 96.8073 2677.86 103.68 2661.5 103.68H2635.1L2634.9 63.4255Z" fill="white" fill-opacity="0.04"/>
<path d="M2939.34 213.447C2923.77 213.84 2914.31 223.462 2914.12 238.385C2914.12 247.025 2916.88 254.095 2922.39 259.396C2908.4 266.269 2891.46 270 2871.56 270C2814.81 270 2777.56 240.545 2777.56 184.778V179.084H2843.58C2843.97 200.487 2854.41 214.429 2870.96 214.429C2884.76 214.429 2895.99 203.433 2895.99 189.491C2895.99 170.698 2872.09 161.367 2849.95 152.724C2847.8 151.885 2845.67 151.052 2843.58 150.218C2801.01 132.938 2781.7 110.553 2781.7 76.9745C2781.7 32.7927 2824.46 0.58905 2872.34 0.58905C2889.68 0.58905 2904.66 4.31996 2918.45 11.3891C2946.24 25.7236 2959.64 46.3418 2960.03 81.0982H2894.22C2891.26 62.4436 2883.58 55.7672 2870.57 55.7672C2858.16 55.7672 2847.71 64.6036 2847.71 76.1891C2847.71 91.7018 2861.9 98.7709 2890.28 110.945C2947.62 135.491 2962 156.109 2962 190.08C2962 200.487 2960.42 210.109 2957.47 218.749C2953.13 215.215 2947.02 213.251 2939.34 213.447Z" fill="white" fill-opacity="0.04"/>
</g>
<defs>
<clipPath id="clip0_829_2005">
<rect width="3017" height="270" fill="white"/>
</clipPath>
</defs>
</svg>
