<svg width="42" height="16" viewBox="0 0 42 16" fill="none" xmlns="http://www.w3.org/2000/svg">
<path fill-rule="evenodd" clip-rule="evenodd" d="M34 16V0L42 3.49691e-07V16H34Z" fill="#356666"/>
<path fill-rule="evenodd" clip-rule="evenodd" d="M30 16V3.05979e-07L31 3.49691e-07V16H30Z" fill="#356666"/>
<path fill-rule="evenodd" clip-rule="evenodd" d="M26 16V2.62268e-07L28 3.49691e-07V16H26Z" fill="#356666"/>
<path fill-rule="evenodd" clip-rule="evenodd" d="M19 16V3.05979e-07L20 3.49691e-07V16H19Z" fill="#356666"/>
<path fill-rule="evenodd" clip-rule="evenodd" d="M8 16L8 1.31134e-07L13 3.49691e-07L13 16H8Z" fill="#356666"/>
<path fill-rule="evenodd" clip-rule="evenodd" d="M4 16L4 3.05979e-07L5 3.49691e-07L5 16H4Z" fill="#356666"/>
<path fill-rule="evenodd" clip-rule="evenodd" d="M0 16L6.99382e-07 3.05979e-07L1 3.49691e-07L1 16H0Z" fill="#356666"/>
</svg>
