<svg width="90" height="43" viewBox="0 0 90 43" fill="none" xmlns="http://www.w3.org/2000/svg">
<path d="M16.92 18.084C16.444 18.084 16.064 17.944 15.78 17.664C15.5 17.38 15.36 16.956 15.36 16.392V15.408C15.36 14.848 15.5 14.426 15.78 14.142C16.064 13.858 16.444 13.716 16.92 13.716C17.4 13.716 17.78 13.858 18.06 14.142C18.344 14.426 18.486 14.848 18.486 15.408V16.392C18.486 16.956 18.344 17.38 18.06 17.664C17.78 17.944 17.4 18.084 16.92 18.084ZM16.92 17.646C17.28 17.646 17.55 17.538 17.73 17.322C17.91 17.106 18 16.804 18 16.416V15.378C18 14.99 17.908 14.69 17.724 14.478C17.54 14.262 17.272 14.154 16.92 14.154C16.568 14.154 16.3 14.262 16.116 14.478C15.936 14.694 15.846 14.994 15.846 15.378V16.416C15.846 16.808 15.936 17.112 16.116 17.328C16.296 17.54 16.564 17.646 16.92 17.646Z" fill="#356666"/>
<path d="M20.7638 18.084C20.2878 18.084 19.9077 17.944 19.6237 17.664C19.3437 17.38 19.2038 16.956 19.2038 16.392V15.408C19.2038 14.848 19.3437 14.426 19.6237 14.142C19.9077 13.858 20.2878 13.716 20.7638 13.716C21.2438 13.716 21.6237 13.858 21.9037 14.142C22.1877 14.426 22.3298 14.848 22.3298 15.408V16.392C22.3298 16.956 22.1877 17.38 21.9037 17.664C21.6237 17.944 21.2438 18.084 20.7638 18.084ZM20.7638 17.646C21.1238 17.646 21.3937 17.538 21.5737 17.322C21.7537 17.106 21.8438 16.804 21.8438 16.416V15.378C21.8438 14.99 21.7517 14.69 21.5677 14.478C21.3837 14.262 21.1158 14.154 20.7638 14.154C20.4118 14.154 20.1437 14.262 19.9597 14.478C19.7797 14.694 19.6898 14.994 19.6898 15.378V16.416C19.6898 16.808 19.7797 17.112 19.9597 17.328C20.1397 17.54 20.4078 17.646 20.7638 17.646Z" fill="#356666"/>
<path d="M24.2295 18V14.124H24.1395L23.3235 15.618H22.7955L23.7975 13.8H24.7155V18H24.2295Z" fill="#356666"/>
<path d="M27.1153 18.084C26.6393 18.084 26.2593 17.944 25.9753 17.664C25.6953 17.38 25.5553 16.956 25.5553 16.392V15.408C25.5553 14.848 25.6953 14.426 25.9753 14.142C26.2593 13.858 26.6393 13.716 27.1153 13.716C27.5953 13.716 27.9753 13.858 28.2553 14.142C28.5393 14.426 28.6813 14.848 28.6813 15.408V16.392C28.6813 16.956 28.5393 17.38 28.2553 17.664C27.9753 17.944 27.5953 18.084 27.1153 18.084ZM27.1153 17.646C27.4753 17.646 27.7453 17.538 27.9253 17.322C28.1053 17.106 28.1953 16.804 28.1953 16.416V15.378C28.1953 14.99 28.1033 14.69 27.9193 14.478C27.7353 14.262 27.4673 14.154 27.1153 14.154C26.7633 14.154 26.4953 14.262 26.3113 14.478C26.1313 14.694 26.0413 14.994 26.0413 15.378V16.416C26.0413 16.808 26.1313 17.112 26.3113 17.328C26.4913 17.54 26.7593 17.646 27.1153 17.646Z" fill="#356666"/>
<path d="M30.5811 18V14.124H30.4911L29.6751 15.618H29.1471L30.1491 13.8H31.0671V18H30.5811Z" fill="#356666"/>
<path d="M33.4669 18.084C32.9909 18.084 32.6109 17.944 32.3269 17.664C32.0469 17.38 31.9069 16.956 31.9069 16.392V15.408C31.9069 14.848 32.0469 14.426 32.3269 14.142C32.6109 13.858 32.9909 13.716 33.4669 13.716C33.9469 13.716 34.3269 13.858 34.6069 14.142C34.8909 14.426 35.0329 14.848 35.0329 15.408V16.392C35.0329 16.956 34.8909 17.38 34.6069 17.664C34.3269 17.944 33.9469 18.084 33.4669 18.084ZM33.4669 17.646C33.8269 17.646 34.0969 17.538 34.2769 17.322C34.4569 17.106 34.5469 16.804 34.5469 16.416V15.378C34.5469 14.99 34.4549 14.69 34.2709 14.478C34.0869 14.262 33.8189 14.154 33.4669 14.154C33.1149 14.154 32.8469 14.262 32.6629 14.478C32.4829 14.694 32.3929 14.994 32.3929 15.378V16.416C32.3929 16.808 32.4829 17.112 32.6629 17.328C32.8429 17.54 33.1109 17.646 33.4669 17.646Z" fill="#356666"/>
<path d="M36.9326 18V14.124H36.8426L36.0266 15.618H35.4986L36.5006 13.8H37.4186V18H36.9326Z" fill="#356666"/>
<path d="M39.8184 18.084C39.3424 18.084 38.9624 17.944 38.6784 17.664C38.3984 17.38 38.2584 16.956 38.2584 16.392V15.408C38.2584 14.848 38.3984 14.426 38.6784 14.142C38.9624 13.858 39.3424 13.716 39.8184 13.716C40.2984 13.716 40.6784 13.858 40.9584 14.142C41.2424 14.426 41.3844 14.848 41.3844 15.408V16.392C41.3844 16.956 41.2424 17.38 40.9584 17.664C40.6784 17.944 40.2984 18.084 39.8184 18.084ZM39.8184 17.646C40.1784 17.646 40.4484 17.538 40.6284 17.322C40.8084 17.106 40.8984 16.804 40.8984 16.416V15.378C40.8984 14.99 40.8064 14.69 40.6224 14.478C40.4384 14.262 40.1704 14.154 39.8184 14.154C39.4664 14.154 39.1984 14.262 39.0144 14.478C38.8344 14.694 38.7444 14.994 38.7444 15.378V16.416C38.7444 16.808 38.8344 17.112 39.0144 17.328C39.1944 17.54 39.4624 17.646 39.8184 17.646Z" fill="#356666"/>
<path d="M43.6622 18.084C43.1862 18.084 42.8062 17.944 42.5222 17.664C42.2422 17.38 42.1022 16.956 42.1022 16.392V15.408C42.1022 14.848 42.2422 14.426 42.5222 14.142C42.8062 13.858 43.1862 13.716 43.6622 13.716C44.1422 13.716 44.5222 13.858 44.8022 14.142C45.0862 14.426 45.2282 14.848 45.2282 15.408V16.392C45.2282 16.956 45.0862 17.38 44.8022 17.664C44.5222 17.944 44.1422 18.084 43.6622 18.084ZM43.6622 17.646C44.0222 17.646 44.2922 17.538 44.4722 17.322C44.6522 17.106 44.7422 16.804 44.7422 16.416V15.378C44.7422 14.99 44.6502 14.69 44.4662 14.478C44.2822 14.262 44.0142 14.154 43.6622 14.154C43.3102 14.154 43.0422 14.262 42.8582 14.478C42.6782 14.694 42.5882 14.994 42.5882 15.378V16.416C42.5882 16.808 42.6782 17.112 42.8582 17.328C43.0382 17.54 43.3062 17.646 43.6622 17.646Z" fill="#356666"/>
<path d="M47.1279 18V14.124H47.0379L46.2219 15.618H45.6939L46.6959 13.8H47.6139V18H47.1279Z" fill="#356666"/>
<path d="M49.6357 18V14.124H49.5457L48.7298 15.618H48.2018L49.2038 13.8H50.1217V18H49.6357Z" fill="#356666"/>
<path d="M52.1436 18V14.124H52.0536L51.2376 15.618H50.7096L51.7116 13.8H52.6296V18H52.1436Z" fill="#356666"/>
<path d="M55.0294 18.084C54.5534 18.084 54.1734 17.944 53.8894 17.664C53.6094 17.38 53.4694 16.956 53.4694 16.392V15.408C53.4694 14.848 53.6094 14.426 53.8894 14.142C54.1734 13.858 54.5534 13.716 55.0294 13.716C55.5094 13.716 55.8894 13.858 56.1694 14.142C56.4534 14.426 56.5954 14.848 56.5954 15.408V16.392C56.5954 16.956 56.4534 17.38 56.1694 17.664C55.8894 17.944 55.5094 18.084 55.0294 18.084ZM55.0294 17.646C55.3894 17.646 55.6594 17.538 55.8394 17.322C56.0194 17.106 56.1094 16.804 56.1094 16.416V15.378C56.1094 14.99 56.0174 14.69 55.8334 14.478C55.6494 14.262 55.3814 14.154 55.0294 14.154C54.6774 14.154 54.4094 14.262 54.2254 14.478C54.0454 14.694 53.9554 14.994 53.9554 15.378V16.416C53.9554 16.808 54.0454 17.112 54.2254 17.328C54.4054 17.54 54.6734 17.646 55.0294 17.646Z" fill="#356666"/>
<path d="M58.4951 18V14.124H58.4051L57.5891 15.618H57.0611L58.0631 13.8H58.9811V18H58.4951Z" fill="#356666"/>
<path d="M61.0029 18V14.124H60.9129L60.0969 15.618H59.5689L60.5709 13.8H61.4889V18H61.0029Z" fill="#356666"/>
<path d="M63.8888 18.084C63.4128 18.084 63.0327 17.944 62.7487 17.664C62.4687 17.38 62.3288 16.956 62.3288 16.392V15.408C62.3288 14.848 62.4687 14.426 62.7487 14.142C63.0327 13.858 63.4128 13.716 63.8888 13.716C64.3688 13.716 64.7487 13.858 65.0287 14.142C65.3127 14.426 65.4548 14.848 65.4548 15.408V16.392C65.4548 16.956 65.3127 17.38 65.0287 17.664C64.7487 17.944 64.3688 18.084 63.8888 18.084ZM63.8888 17.646C64.2488 17.646 64.5187 17.538 64.6987 17.322C64.8787 17.106 64.9688 16.804 64.9688 16.416V15.378C64.9688 14.99 64.8767 14.69 64.6927 14.478C64.5087 14.262 64.2408 14.154 63.8888 14.154C63.5368 14.154 63.2688 14.262 63.0848 14.478C62.9048 14.694 62.8148 14.994 62.8148 15.378V16.416C62.8148 16.808 62.9048 17.112 63.0848 17.328C63.2648 17.54 63.5328 17.646 63.8888 17.646Z" fill="#356666"/>
<path d="M73.5186 18V14.124H73.4286L72.6126 15.618H72.0846L73.0866 13.8H74.0046V18H73.5186Z" fill="#356666"/>
<path d="M76.0264 18V14.124H75.9364L75.1204 15.618H74.5924L75.5944 13.8H76.5124V18H76.0264Z" fill="#356666"/>
<path d="M78.9122 18.084C78.4362 18.084 78.0562 17.944 77.7722 17.664C77.4922 17.38 77.3522 16.956 77.3522 16.392V15.408C77.3522 14.848 77.4922 14.426 77.7722 14.142C78.0562 13.858 78.4362 13.716 78.9122 13.716C79.3922 13.716 79.7722 13.858 80.0522 14.142C80.3362 14.426 80.4782 14.848 80.4782 15.408V16.392C80.4782 16.956 80.3362 17.38 80.0522 17.664C79.7722 17.944 79.3922 18.084 78.9122 18.084ZM78.9122 17.646C79.2722 17.646 79.5422 17.538 79.7222 17.322C79.9022 17.106 79.9922 16.804 79.9922 16.416V15.378C79.9922 14.99 79.9002 14.69 79.7162 14.478C79.5322 14.262 79.2642 14.154 78.9122 14.154C78.5602 14.154 78.2922 14.262 78.1082 14.478C77.9282 14.694 77.8382 14.994 77.8382 15.378V16.416C77.8382 16.808 77.9282 17.112 78.1082 17.328C78.2882 17.54 78.5562 17.646 78.9122 17.646Z" fill="#356666"/>
<path d="M82.3779 18V14.124H82.2879L81.4719 15.618H80.9439L81.9459 13.8H82.8639V18H82.3779Z" fill="#356666"/>
<path d="M84.8857 18V14.124H84.7958L83.9798 15.618H83.4518L84.4538 13.8H85.3717V18H84.8857Z" fill="#356666"/>
<path d="M87.7716 18.084C87.2956 18.084 86.9156 17.944 86.6316 17.664C86.3516 17.38 86.2116 16.956 86.2116 16.392V15.408C86.2116 14.848 86.3516 14.426 86.6316 14.142C86.9156 13.858 87.2956 13.716 87.7716 13.716C88.2516 13.716 88.6316 13.858 88.9116 14.142C89.1956 14.426 89.3376 14.848 89.3376 15.408V16.392C89.3376 16.956 89.1956 17.38 88.9116 17.664C88.6316 17.944 88.2516 18.084 87.7716 18.084ZM87.7716 17.646C88.1316 17.646 88.4016 17.538 88.5816 17.322C88.7616 17.106 88.8516 16.804 88.8516 16.416V15.378C88.8516 14.99 88.7596 14.69 88.5756 14.478C88.3916 14.262 88.1236 14.154 87.7716 14.154C87.4196 14.154 87.1516 14.262 86.9676 14.478C86.7876 14.694 86.6976 14.994 86.6976 15.378V16.416C86.6976 16.808 86.7876 17.112 86.9676 17.328C87.1476 17.54 87.4156 17.646 87.7716 17.646Z" fill="#356666"/>
<path d="M16.92 26.084C16.444 26.084 16.064 25.944 15.78 25.664C15.5 25.38 15.36 24.956 15.36 24.392V23.408C15.36 22.848 15.5 22.426 15.78 22.142C16.064 21.858 16.444 21.716 16.92 21.716C17.4 21.716 17.78 21.858 18.06 22.142C18.344 22.426 18.486 22.848 18.486 23.408V24.392C18.486 24.956 18.344 25.38 18.06 25.664C17.78 25.944 17.4 26.084 16.92 26.084ZM16.92 25.646C17.28 25.646 17.55 25.538 17.73 25.322C17.91 25.106 18 24.804 18 24.416V23.378C18 22.99 17.908 22.69 17.724 22.478C17.54 22.262 17.272 22.154 16.92 22.154C16.568 22.154 16.3 22.262 16.116 22.478C15.936 22.694 15.846 22.994 15.846 23.378V24.416C15.846 24.808 15.936 25.112 16.116 25.328C16.296 25.54 16.564 25.646 16.92 25.646Z" fill="#356666"/>
<path d="M20.3857 26V22.124H20.2957L19.4797 23.618H18.9517L19.9538 21.8H20.8717V26H20.3857Z" fill="#356666"/>
<path d="M22.8936 26V22.124H22.8036L21.9876 23.618H21.4596L22.4616 21.8H23.3796V26H22.8936Z" fill="#356666"/>
<path d="M25.4014 26V22.124H25.3114L24.4954 23.618H23.9674L24.9694 21.8H25.8874V26H25.4014Z" fill="#356666"/>
<path d="M27.9092 26V22.124H27.8192L27.0032 23.618H26.4752L27.4772 21.8H28.3952V26H27.9092Z" fill="#356666"/>
<path d="M30.795 26.084C30.319 26.084 29.939 25.944 29.655 25.664C29.375 25.38 29.235 24.956 29.235 24.392V23.408C29.235 22.848 29.375 22.426 29.655 22.142C29.939 21.858 30.319 21.716 30.795 21.716C31.275 21.716 31.655 21.858 31.935 22.142C32.219 22.426 32.361 22.848 32.361 23.408V24.392C32.361 24.956 32.219 25.38 31.935 25.664C31.655 25.944 31.275 26.084 30.795 26.084ZM30.795 25.646C31.155 25.646 31.425 25.538 31.605 25.322C31.785 25.106 31.875 24.804 31.875 24.416V23.378C31.875 22.99 31.783 22.69 31.599 22.478C31.415 22.262 31.147 22.154 30.795 22.154C30.443 22.154 30.175 22.262 29.991 22.478C29.811 22.694 29.721 22.994 29.721 23.378V24.416C29.721 24.808 29.811 25.112 29.991 25.328C30.171 25.54 30.439 25.646 30.795 25.646Z" fill="#356666"/>
<path d="M34.2607 26V22.124H34.1707L33.3547 23.618H32.8267L33.8288 21.8H34.7467V26H34.2607Z" fill="#356666"/>
<path d="M37.1466 26.084C36.6706 26.084 36.2906 25.944 36.0066 25.664C35.7266 25.38 35.5866 24.956 35.5866 24.392V23.408C35.5866 22.848 35.7266 22.426 36.0066 22.142C36.2906 21.858 36.6706 21.716 37.1466 21.716C37.6266 21.716 38.0066 21.858 38.2866 22.142C38.5706 22.426 38.7126 22.848 38.7126 23.408V24.392C38.7126 24.956 38.5706 25.38 38.2866 25.664C38.0066 25.944 37.6266 26.084 37.1466 26.084ZM37.1466 25.646C37.5066 25.646 37.7766 25.538 37.9566 25.322C38.1366 25.106 38.2266 24.804 38.2266 24.416V23.378C38.2266 22.99 38.1346 22.69 37.9506 22.478C37.7666 22.262 37.4986 22.154 37.1466 22.154C36.7946 22.154 36.5266 22.262 36.3426 22.478C36.1626 22.694 36.0726 22.994 36.0726 23.378V24.416C36.0726 24.808 36.1626 25.112 36.3426 25.328C36.5226 25.54 36.7906 25.646 37.1466 25.646Z" fill="#356666"/>
<path d="M40.6123 26V22.124H40.5223L39.7063 23.618H39.1783L40.1803 21.8H41.0983V26H40.6123Z" fill="#356666"/>
<path d="M49.2842 26V22.124H49.1942L48.3782 23.618H47.8502L48.8522 21.8H49.7702V26H49.2842Z" fill="#356666"/>
<path d="M52.17 26.084C51.694 26.084 51.314 25.944 51.03 25.664C50.75 25.38 50.61 24.956 50.61 24.392V23.408C50.61 22.848 50.75 22.426 51.03 22.142C51.314 21.858 51.694 21.716 52.17 21.716C52.65 21.716 53.03 21.858 53.31 22.142C53.594 22.426 53.736 22.848 53.736 23.408V24.392C53.736 24.956 53.594 25.38 53.31 25.664C53.03 25.944 52.65 26.084 52.17 26.084ZM52.17 25.646C52.53 25.646 52.8 25.538 52.98 25.322C53.16 25.106 53.25 24.804 53.25 24.416V23.378C53.25 22.99 53.158 22.69 52.974 22.478C52.79 22.262 52.522 22.154 52.17 22.154C51.818 22.154 51.55 22.262 51.366 22.478C51.186 22.694 51.096 22.994 51.096 23.378V24.416C51.096 24.808 51.186 25.112 51.366 25.328C51.546 25.54 51.814 25.646 52.17 25.646Z" fill="#356666"/>
<path d="M55.6357 26V22.124H55.5457L54.7298 23.618H54.2018L55.2038 21.8H56.1217V26H55.6357Z" fill="#356666"/>
<path d="M58.1436 26V22.124H58.0536L57.2376 23.618H56.7096L57.7116 21.8H58.6296V26H58.1436Z" fill="#356666"/>
<path d="M60.6514 26V22.124H60.5614L59.7454 23.618H59.2174L60.2194 21.8H61.1374V26H60.6514Z" fill="#356666"/>
<path d="M63.5372 26.084C63.0612 26.084 62.6812 25.944 62.3972 25.664C62.1172 25.38 61.9772 24.956 61.9772 24.392V23.408C61.9772 22.848 62.1172 22.426 62.3972 22.142C62.6812 21.858 63.0612 21.716 63.5372 21.716C64.0172 21.716 64.3972 21.858 64.6772 22.142C64.9612 22.426 65.1032 22.848 65.1032 23.408V24.392C65.1032 24.956 64.9612 25.38 64.6772 25.664C64.3972 25.944 64.0172 26.084 63.5372 26.084ZM63.5372 25.646C63.8972 25.646 64.1672 25.538 64.3472 25.322C64.5272 25.106 64.6172 24.804 64.6172 24.416V23.378C64.6172 22.99 64.5252 22.69 64.3412 22.478C64.1572 22.262 63.8892 22.154 63.5372 22.154C63.1852 22.154 62.9172 22.262 62.7332 22.478C62.5532 22.694 62.4632 22.994 62.4632 23.378V24.416C62.4632 24.808 62.5532 25.112 62.7332 25.328C62.9132 25.54 63.1812 25.646 63.5372 25.646Z" fill="#356666"/>
<path d="M73.167 26V22.124H73.077L72.261 23.618H71.733L72.735 21.8H73.653V26H73.167Z" fill="#356666"/>
<path d="M76.0528 26.084C75.5768 26.084 75.1968 25.944 74.9128 25.664C74.6328 25.38 74.4928 24.956 74.4928 24.392V23.408C74.4928 22.848 74.6328 22.426 74.9128 22.142C75.1968 21.858 75.5768 21.716 76.0528 21.716C76.5328 21.716 76.9128 21.858 77.1928 22.142C77.4768 22.426 77.6188 22.848 77.6188 23.408V24.392C77.6188 24.956 77.4768 25.38 77.1928 25.664C76.9128 25.944 76.5328 26.084 76.0528 26.084ZM76.0528 25.646C76.4128 25.646 76.6828 25.538 76.8628 25.322C77.0428 25.106 77.1328 24.804 77.1328 24.416V23.378C77.1328 22.99 77.0408 22.69 76.8568 22.478C76.6728 22.262 76.4048 22.154 76.0528 22.154C75.7008 22.154 75.4328 22.262 75.2488 22.478C75.0688 22.694 74.9788 22.994 74.9788 23.378V24.416C74.9788 24.808 75.0688 25.112 75.2488 25.328C75.4288 25.54 75.6968 25.646 76.0528 25.646Z" fill="#356666"/>
<path d="M79.8966 26.084C79.4206 26.084 79.0406 25.944 78.7566 25.664C78.4766 25.38 78.3366 24.956 78.3366 24.392V23.408C78.3366 22.848 78.4766 22.426 78.7566 22.142C79.0406 21.858 79.4206 21.716 79.8966 21.716C80.3766 21.716 80.7566 21.858 81.0366 22.142C81.3206 22.426 81.4626 22.848 81.4626 23.408V24.392C81.4626 24.956 81.3206 25.38 81.0366 25.664C80.7566 25.944 80.3766 26.084 79.8966 26.084ZM79.8966 25.646C80.2566 25.646 80.5266 25.538 80.7066 25.322C80.8866 25.106 80.9766 24.804 80.9766 24.416V23.378C80.9766 22.99 80.8846 22.69 80.7006 22.478C80.5166 22.262 80.2486 22.154 79.8966 22.154C79.5446 22.154 79.2766 22.262 79.0926 22.478C78.9126 22.694 78.8226 22.994 78.8226 23.378V24.416C78.8226 24.808 78.9126 25.112 79.0926 25.328C79.2726 25.54 79.5406 25.646 79.8966 25.646Z" fill="#356666"/>
<path d="M83.3623 26V22.124H83.2723L82.4563 23.618H81.9283L82.9303 21.8H83.8483V26H83.3623Z" fill="#356666"/>
<path d="M85.8701 26V22.124H85.7801L84.9641 23.618H84.4361L85.4381 21.8H86.3561V26H85.8701Z" fill="#356666"/>
<path d="M88.3779 26V22.124H88.2879L87.4719 23.618H86.9439L87.9459 21.8H88.8639V26H88.3779Z" fill="#356666"/>
<path d="M16.92 34.084C16.444 34.084 16.064 33.944 15.78 33.664C15.5 33.38 15.36 32.956 15.36 32.392V31.408C15.36 30.848 15.5 30.426 15.78 30.142C16.064 29.858 16.444 29.716 16.92 29.716C17.4 29.716 17.78 29.858 18.06 30.142C18.344 30.426 18.486 30.848 18.486 31.408V32.392C18.486 32.956 18.344 33.38 18.06 33.664C17.78 33.944 17.4 34.084 16.92 34.084ZM16.92 33.646C17.28 33.646 17.55 33.538 17.73 33.322C17.91 33.106 18 32.804 18 32.416V31.378C18 30.99 17.908 30.69 17.724 30.478C17.54 30.262 17.272 30.154 16.92 30.154C16.568 30.154 16.3 30.262 16.116 30.478C15.936 30.694 15.846 30.994 15.846 31.378V32.416C15.846 32.808 15.936 33.112 16.116 33.328C16.296 33.54 16.564 33.646 16.92 33.646Z" fill="#356666"/>
<path d="M20.7638 34.084C20.2878 34.084 19.9077 33.944 19.6237 33.664C19.3437 33.38 19.2038 32.956 19.2038 32.392V31.408C19.2038 30.848 19.3437 30.426 19.6237 30.142C19.9077 29.858 20.2878 29.716 20.7638 29.716C21.2438 29.716 21.6237 29.858 21.9037 30.142C22.1877 30.426 22.3298 30.848 22.3298 31.408V32.392C22.3298 32.956 22.1877 33.38 21.9037 33.664C21.6237 33.944 21.2438 34.084 20.7638 34.084ZM20.7638 33.646C21.1238 33.646 21.3937 33.538 21.5737 33.322C21.7537 33.106 21.8438 32.804 21.8438 32.416V31.378C21.8438 30.99 21.7517 30.69 21.5677 30.478C21.3837 30.262 21.1158 30.154 20.7638 30.154C20.4118 30.154 20.1437 30.262 19.9597 30.478C19.7797 30.694 19.6898 30.994 19.6898 31.378V32.416C19.6898 32.808 19.7797 33.112 19.9597 33.328C20.1397 33.54 20.4078 33.646 20.7638 33.646Z" fill="#356666"/>
<path d="M24.2295 34V30.124H24.1395L23.3235 31.618H22.7955L23.7975 29.8H24.7155V34H24.2295Z" fill="#356666"/>
<path d="M27.1153 34.084C26.6393 34.084 26.2593 33.944 25.9753 33.664C25.6953 33.38 25.5553 32.956 25.5553 32.392V31.408C25.5553 30.848 25.6953 30.426 25.9753 30.142C26.2593 29.858 26.6393 29.716 27.1153 29.716C27.5953 29.716 27.9753 29.858 28.2553 30.142C28.5393 30.426 28.6813 30.848 28.6813 31.408V32.392C28.6813 32.956 28.5393 33.38 28.2553 33.664C27.9753 33.944 27.5953 34.084 27.1153 34.084ZM27.1153 33.646C27.4753 33.646 27.7453 33.538 27.9253 33.322C28.1053 33.106 28.1953 32.804 28.1953 32.416V31.378C28.1953 30.99 28.1033 30.69 27.9193 30.478C27.7353 30.262 27.4673 30.154 27.1153 30.154C26.7633 30.154 26.4953 30.262 26.3113 30.478C26.1313 30.694 26.0413 30.994 26.0413 31.378V32.416C26.0413 32.808 26.1313 33.112 26.3113 33.328C26.4913 33.54 26.7593 33.646 27.1153 33.646Z" fill="#356666"/>
<path d="M30.5811 34V30.124H30.4911L29.6751 31.618H29.1471L30.1491 29.8H31.0671V34H30.5811Z" fill="#356666"/>
<path d="M33.4669 34.084C32.9909 34.084 32.6109 33.944 32.3269 33.664C32.0469 33.38 31.9069 32.956 31.9069 32.392V31.408C31.9069 30.848 32.0469 30.426 32.3269 30.142C32.6109 29.858 32.9909 29.716 33.4669 29.716C33.9469 29.716 34.3269 29.858 34.6069 30.142C34.8909 30.426 35.0329 30.848 35.0329 31.408V32.392C35.0329 32.956 34.8909 33.38 34.6069 33.664C34.3269 33.944 33.9469 34.084 33.4669 34.084ZM33.4669 33.646C33.8269 33.646 34.0969 33.538 34.2769 33.322C34.4569 33.106 34.5469 32.804 34.5469 32.416V31.378C34.5469 30.99 34.4549 30.69 34.2709 30.478C34.0869 30.262 33.8189 30.154 33.4669 30.154C33.1149 30.154 32.8469 30.262 32.6629 30.478C32.4829 30.694 32.3929 30.994 32.3929 31.378V32.416C32.3929 32.808 32.4829 33.112 32.6629 33.328C32.8429 33.54 33.1109 33.646 33.4669 33.646Z" fill="#356666"/>
<path d="M36.9326 34V30.124H36.8426L36.0266 31.618H35.4986L36.5006 29.8H37.4186V34H36.9326Z" fill="#356666"/>
<path d="M39.8184 34.084C39.3424 34.084 38.9624 33.944 38.6784 33.664C38.3984 33.38 38.2584 32.956 38.2584 32.392V31.408C38.2584 30.848 38.3984 30.426 38.6784 30.142C38.9624 29.858 39.3424 29.716 39.8184 29.716C40.2984 29.716 40.6784 29.858 40.9584 30.142C41.2424 30.426 41.3844 30.848 41.3844 31.408V32.392C41.3844 32.956 41.2424 33.38 40.9584 33.664C40.6784 33.944 40.2984 34.084 39.8184 34.084ZM39.8184 33.646C40.1784 33.646 40.4484 33.538 40.6284 33.322C40.8084 33.106 40.8984 32.804 40.8984 32.416V31.378C40.8984 30.99 40.8064 30.69 40.6224 30.478C40.4384 30.262 40.1704 30.154 39.8184 30.154C39.4664 30.154 39.1984 30.262 39.0144 30.478C38.8344 30.694 38.7444 30.994 38.7444 31.378V32.416C38.7444 32.808 38.8344 33.112 39.0144 33.328C39.1944 33.54 39.4624 33.646 39.8184 33.646Z" fill="#356666"/>
<path d="M43.6622 34.084C43.1862 34.084 42.8062 33.944 42.5222 33.664C42.2422 33.38 42.1022 32.956 42.1022 32.392V31.408C42.1022 30.848 42.2422 30.426 42.5222 30.142C42.8062 29.858 43.1862 29.716 43.6622 29.716C44.1422 29.716 44.5222 29.858 44.8022 30.142C45.0862 30.426 45.2282 30.848 45.2282 31.408V32.392C45.2282 32.956 45.0862 33.38 44.8022 33.664C44.5222 33.944 44.1422 34.084 43.6622 34.084ZM43.6622 33.646C44.0222 33.646 44.2922 33.538 44.4722 33.322C44.6522 33.106 44.7422 32.804 44.7422 32.416V31.378C44.7422 30.99 44.6502 30.69 44.4662 30.478C44.2822 30.262 44.0142 30.154 43.6622 30.154C43.3102 30.154 43.0422 30.262 42.8582 30.478C42.6782 30.694 42.5882 30.994 42.5882 31.378V32.416C42.5882 32.808 42.6782 33.112 42.8582 33.328C43.0382 33.54 43.3062 33.646 43.6622 33.646Z" fill="#356666"/>
<path d="M47.1279 34V30.124H47.0379L46.2219 31.618H45.6939L46.6959 29.8H47.6139V34H47.1279Z" fill="#356666"/>
<path d="M49.6357 34V30.124H49.5457L48.7298 31.618H48.2018L49.2038 29.8H50.1217V34H49.6357Z" fill="#356666"/>
<path d="M52.1436 34V30.124H52.0536L51.2376 31.618H50.7096L51.7116 29.8H52.6296V34H52.1436Z" fill="#356666"/>
<path d="M55.0294 34.084C54.5534 34.084 54.1734 33.944 53.8894 33.664C53.6094 33.38 53.4694 32.956 53.4694 32.392V31.408C53.4694 30.848 53.6094 30.426 53.8894 30.142C54.1734 29.858 54.5534 29.716 55.0294 29.716C55.5094 29.716 55.8894 29.858 56.1694 30.142C56.4534 30.426 56.5954 30.848 56.5954 31.408V32.392C56.5954 32.956 56.4534 33.38 56.1694 33.664C55.8894 33.944 55.5094 34.084 55.0294 34.084ZM55.0294 33.646C55.3894 33.646 55.6594 33.538 55.8394 33.322C56.0194 33.106 56.1094 32.804 56.1094 32.416V31.378C56.1094 30.99 56.0174 30.69 55.8334 30.478C55.6494 30.262 55.3814 30.154 55.0294 30.154C54.6774 30.154 54.4094 30.262 54.2254 30.478C54.0454 30.694 53.9554 30.994 53.9554 31.378V32.416C53.9554 32.808 54.0454 33.112 54.2254 33.328C54.4054 33.54 54.6734 33.646 55.0294 33.646Z" fill="#356666"/>
<path d="M58.4951 34V30.124H58.4051L57.5891 31.618H57.0611L58.0631 29.8H58.9811V34H58.4951Z" fill="#356666"/>
<path d="M61.0029 34V30.124H60.9129L60.0969 31.618H59.5689L60.5709 29.8H61.4889V34H61.0029Z" fill="#356666"/>
<path d="M63.8888 34.084C63.4128 34.084 63.0327 33.944 62.7487 33.664C62.4687 33.38 62.3288 32.956 62.3288 32.392V31.408C62.3288 30.848 62.4687 30.426 62.7487 30.142C63.0327 29.858 63.4128 29.716 63.8888 29.716C64.3688 29.716 64.7487 29.858 65.0287 30.142C65.3127 30.426 65.4548 30.848 65.4548 31.408V32.392C65.4548 32.956 65.3127 33.38 65.0287 33.664C64.7487 33.944 64.3688 34.084 63.8888 34.084ZM63.8888 33.646C64.2488 33.646 64.5187 33.538 64.6987 33.322C64.8787 33.106 64.9688 32.804 64.9688 32.416V31.378C64.9688 30.99 64.8767 30.69 64.6927 30.478C64.5087 30.262 64.2408 30.154 63.8888 30.154C63.5368 30.154 63.2688 30.262 63.0848 30.478C62.9048 30.694 62.8148 30.994 62.8148 31.378V32.416C62.8148 32.808 62.9048 33.112 63.0848 33.328C63.2648 33.54 63.5328 33.646 63.8888 33.646Z" fill="#356666"/>
<path d="M73.5186 34V30.124H73.4286L72.6126 31.618H72.0846L73.0866 29.8H74.0046V34H73.5186Z" fill="#356666"/>
<path d="M76.0264 34V30.124H75.9364L75.1204 31.618H74.5924L75.5944 29.8H76.5124V34H76.0264Z" fill="#356666"/>
<path d="M78.9122 34.084C78.4362 34.084 78.0562 33.944 77.7722 33.664C77.4922 33.38 77.3522 32.956 77.3522 32.392V31.408C77.3522 30.848 77.4922 30.426 77.7722 30.142C78.0562 29.858 78.4362 29.716 78.9122 29.716C79.3922 29.716 79.7722 29.858 80.0522 30.142C80.3362 30.426 80.4782 30.848 80.4782 31.408V32.392C80.4782 32.956 80.3362 33.38 80.0522 33.664C79.7722 33.944 79.3922 34.084 78.9122 34.084ZM78.9122 33.646C79.2722 33.646 79.5422 33.538 79.7222 33.322C79.9022 33.106 79.9922 32.804 79.9922 32.416V31.378C79.9922 30.99 79.9002 30.69 79.7162 30.478C79.5322 30.262 79.2642 30.154 78.9122 30.154C78.5602 30.154 78.2922 30.262 78.1082 30.478C77.9282 30.694 77.8382 30.994 77.8382 31.378V32.416C77.8382 32.808 77.9282 33.112 78.1082 33.328C78.2882 33.54 78.5562 33.646 78.9122 33.646Z" fill="#356666"/>
<path d="M82.3779 34V30.124H82.2879L81.4719 31.618H80.9439L81.9459 29.8H82.8639V34H82.3779Z" fill="#356666"/>
<path d="M84.8857 34V30.124H84.7958L83.9798 31.618H83.4518L84.4538 29.8H85.3717V34H84.8857Z" fill="#356666"/>
<path d="M87.7716 34.084C87.2956 34.084 86.9156 33.944 86.6316 33.664C86.3516 33.38 86.2116 32.956 86.2116 32.392V31.408C86.2116 30.848 86.3516 30.426 86.6316 30.142C86.9156 29.858 87.2956 29.716 87.7716 29.716C88.2516 29.716 88.6316 29.858 88.9116 30.142C89.1956 30.426 89.3376 30.848 89.3376 31.408V32.392C89.3376 32.956 89.1956 33.38 88.9116 33.664C88.6316 33.944 88.2516 34.084 87.7716 34.084ZM87.7716 33.646C88.1316 33.646 88.4016 33.538 88.5816 33.322C88.7616 33.106 88.8516 32.804 88.8516 32.416V31.378C88.8516 30.99 88.7596 30.69 88.5756 30.478C88.3916 30.262 88.1236 30.154 87.7716 30.154C87.4196 30.154 87.1516 30.262 86.9676 30.478C86.7876 30.694 86.6976 30.994 86.6976 31.378V32.416C86.6976 32.808 86.7876 33.112 86.9676 33.328C87.1476 33.54 87.4156 33.646 87.7716 33.646Z" fill="#356666"/>
<path d="M16.92 42.084C16.444 42.084 16.064 41.944 15.78 41.664C15.5 41.38 15.36 40.956 15.36 40.392V39.408C15.36 38.848 15.5 38.426 15.78 38.142C16.064 37.858 16.444 37.716 16.92 37.716C17.4 37.716 17.78 37.858 18.06 38.142C18.344 38.426 18.486 38.848 18.486 39.408V40.392C18.486 40.956 18.344 41.38 18.06 41.664C17.78 41.944 17.4 42.084 16.92 42.084ZM16.92 41.646C17.28 41.646 17.55 41.538 17.73 41.322C17.91 41.106 18 40.804 18 40.416V39.378C18 38.99 17.908 38.69 17.724 38.478C17.54 38.262 17.272 38.154 16.92 38.154C16.568 38.154 16.3 38.262 16.116 38.478C15.936 38.694 15.846 38.994 15.846 39.378V40.416C15.846 40.808 15.936 41.112 16.116 41.328C16.296 41.54 16.564 41.646 16.92 41.646Z" fill="#356666"/>
<path d="M20.3857 42V38.124H20.2957L19.4797 39.618H18.9517L19.9538 37.8H20.8717V42H20.3857Z" fill="#356666"/>
<path d="M22.8936 42V38.124H22.8036L21.9876 39.618H21.4596L22.4616 37.8H23.3796V42H22.8936Z" fill="#356666"/>
<path d="M25.4014 42V38.124H25.3114L24.4954 39.618H23.9674L24.9694 37.8H25.8874V42H25.4014Z" fill="#356666"/>
<path d="M27.9092 42V38.124H27.8192L27.0032 39.618H26.4752L27.4772 37.8H28.3952V42H27.9092Z" fill="#356666"/>
<path d="M30.795 42.084C30.319 42.084 29.939 41.944 29.655 41.664C29.375 41.38 29.235 40.956 29.235 40.392V39.408C29.235 38.848 29.375 38.426 29.655 38.142C29.939 37.858 30.319 37.716 30.795 37.716C31.275 37.716 31.655 37.858 31.935 38.142C32.219 38.426 32.361 38.848 32.361 39.408V40.392C32.361 40.956 32.219 41.38 31.935 41.664C31.655 41.944 31.275 42.084 30.795 42.084ZM30.795 41.646C31.155 41.646 31.425 41.538 31.605 41.322C31.785 41.106 31.875 40.804 31.875 40.416V39.378C31.875 38.99 31.783 38.69 31.599 38.478C31.415 38.262 31.147 38.154 30.795 38.154C30.443 38.154 30.175 38.262 29.991 38.478C29.811 38.694 29.721 38.994 29.721 39.378V40.416C29.721 40.808 29.811 41.112 29.991 41.328C30.171 41.54 30.439 41.646 30.795 41.646Z" fill="#356666"/>
<path d="M34.2607 42V38.124H34.1707L33.3547 39.618H32.8267L33.8288 37.8H34.7467V42H34.2607Z" fill="#356666"/>
<path d="M37.1466 42.084C36.6706 42.084 36.2906 41.944 36.0066 41.664C35.7266 41.38 35.5866 40.956 35.5866 40.392V39.408C35.5866 38.848 35.7266 38.426 36.0066 38.142C36.2906 37.858 36.6706 37.716 37.1466 37.716C37.6266 37.716 38.0066 37.858 38.2866 38.142C38.5706 38.426 38.7126 38.848 38.7126 39.408V40.392C38.7126 40.956 38.5706 41.38 38.2866 41.664C38.0066 41.944 37.6266 42.084 37.1466 42.084ZM37.1466 41.646C37.5066 41.646 37.7766 41.538 37.9566 41.322C38.1366 41.106 38.2266 40.804 38.2266 40.416V39.378C38.2266 38.99 38.1346 38.69 37.9506 38.478C37.7666 38.262 37.4986 38.154 37.1466 38.154C36.7946 38.154 36.5266 38.262 36.3426 38.478C36.1626 38.694 36.0726 38.994 36.0726 39.378V40.416C36.0726 40.808 36.1626 41.112 36.3426 41.328C36.5226 41.54 36.7906 41.646 37.1466 41.646Z" fill="#356666"/>
<path d="M40.6123 42V38.124H40.5223L39.7063 39.618H39.1783L40.1803 37.8H41.0983V42H40.6123Z" fill="#356666"/>
<path d="M49.2842 42V38.124H49.1942L48.3782 39.618H47.8502L48.8522 37.8H49.7702V42H49.2842Z" fill="#356666"/>
<path d="M52.17 42.084C51.694 42.084 51.314 41.944 51.03 41.664C50.75 41.38 50.61 40.956 50.61 40.392V39.408C50.61 38.848 50.75 38.426 51.03 38.142C51.314 37.858 51.694 37.716 52.17 37.716C52.65 37.716 53.03 37.858 53.31 38.142C53.594 38.426 53.736 38.848 53.736 39.408V40.392C53.736 40.956 53.594 41.38 53.31 41.664C53.03 41.944 52.65 42.084 52.17 42.084ZM52.17 41.646C52.53 41.646 52.8 41.538 52.98 41.322C53.16 41.106 53.25 40.804 53.25 40.416V39.378C53.25 38.99 53.158 38.69 52.974 38.478C52.79 38.262 52.522 38.154 52.17 38.154C51.818 38.154 51.55 38.262 51.366 38.478C51.186 38.694 51.096 38.994 51.096 39.378V40.416C51.096 40.808 51.186 41.112 51.366 41.328C51.546 41.54 51.814 41.646 52.17 41.646Z" fill="#356666"/>
<path d="M55.6357 42V38.124H55.5457L54.7298 39.618H54.2018L55.2038 37.8H56.1217V42H55.6357Z" fill="#356666"/>
<path d="M58.1436 42V38.124H58.0536L57.2376 39.618H56.7096L57.7116 37.8H58.6296V42H58.1436Z" fill="#356666"/>
<path d="M60.6514 42V38.124H60.5614L59.7454 39.618H59.2174L60.2194 37.8H61.1374V42H60.6514Z" fill="#356666"/>
<path d="M63.5372 42.084C63.0612 42.084 62.6812 41.944 62.3972 41.664C62.1172 41.38 61.9772 40.956 61.9772 40.392V39.408C61.9772 38.848 62.1172 38.426 62.3972 38.142C62.6812 37.858 63.0612 37.716 63.5372 37.716C64.0172 37.716 64.3972 37.858 64.6772 38.142C64.9612 38.426 65.1032 38.848 65.1032 39.408V40.392C65.1032 40.956 64.9612 41.38 64.6772 41.664C64.3972 41.944 64.0172 42.084 63.5372 42.084ZM63.5372 41.646C63.8972 41.646 64.1672 41.538 64.3472 41.322C64.5272 41.106 64.6172 40.804 64.6172 40.416V39.378C64.6172 38.99 64.5252 38.69 64.3412 38.478C64.1572 38.262 63.8892 38.154 63.5372 38.154C63.1852 38.154 62.9172 38.262 62.7332 38.478C62.5532 38.694 62.4632 38.994 62.4632 39.378V40.416C62.4632 40.808 62.5532 41.112 62.7332 41.328C62.9132 41.54 63.1812 41.646 63.5372 41.646Z" fill="#356666"/>
<path d="M73.167 42V38.124H73.077L72.261 39.618H71.733L72.735 37.8H73.653V42H73.167Z" fill="#356666"/>
<path d="M76.0528 42.084C75.5768 42.084 75.1968 41.944 74.9128 41.664C74.6328 41.38 74.4928 40.956 74.4928 40.392V39.408C74.4928 38.848 74.6328 38.426 74.9128 38.142C75.1968 37.858 75.5768 37.716 76.0528 37.716C76.5328 37.716 76.9128 37.858 77.1928 38.142C77.4768 38.426 77.6188 38.848 77.6188 39.408V40.392C77.6188 40.956 77.4768 41.38 77.1928 41.664C76.9128 41.944 76.5328 42.084 76.0528 42.084ZM76.0528 41.646C76.4128 41.646 76.6828 41.538 76.8628 41.322C77.0428 41.106 77.1328 40.804 77.1328 40.416V39.378C77.1328 38.99 77.0408 38.69 76.8568 38.478C76.6728 38.262 76.4048 38.154 76.0528 38.154C75.7008 38.154 75.4328 38.262 75.2488 38.478C75.0688 38.694 74.9788 38.994 74.9788 39.378V40.416C74.9788 40.808 75.0688 41.112 75.2488 41.328C75.4288 41.54 75.6968 41.646 76.0528 41.646Z" fill="#356666"/>
<path d="M79.8966 42.084C79.4206 42.084 79.0406 41.944 78.7566 41.664C78.4766 41.38 78.3366 40.956 78.3366 40.392V39.408C78.3366 38.848 78.4766 38.426 78.7566 38.142C79.0406 37.858 79.4206 37.716 79.8966 37.716C80.3766 37.716 80.7566 37.858 81.0366 38.142C81.3206 38.426 81.4626 38.848 81.4626 39.408V40.392C81.4626 40.956 81.3206 41.38 81.0366 41.664C80.7566 41.944 80.3766 42.084 79.8966 42.084ZM79.8966 41.646C80.2566 41.646 80.5266 41.538 80.7066 41.322C80.8866 41.106 80.9766 40.804 80.9766 40.416V39.378C80.9766 38.99 80.8846 38.69 80.7006 38.478C80.5166 38.262 80.2486 38.154 79.8966 38.154C79.5446 38.154 79.2766 38.262 79.0926 38.478C78.9126 38.694 78.8226 38.994 78.8226 39.378V40.416C78.8226 40.808 78.9126 41.112 79.0926 41.328C79.2726 41.54 79.5406 41.646 79.8966 41.646Z" fill="#356666"/>
<path d="M83.3623 42V38.124H83.2723L82.4563 39.618H81.9283L82.9303 37.8H83.8483V42H83.3623Z" fill="#356666"/>
<path d="M85.8701 42V38.124H85.7801L84.9641 39.618H84.4361L85.4381 37.8H86.3561V42H85.8701Z" fill="#356666"/>
<path d="M88.3779 42V38.124H88.2879L87.4719 39.618H86.9439L87.9459 37.8H88.8639V42H88.3779Z" fill="#356666"/>
<path d="M0 14H10V18H0V14Z" fill="#214343"/>
<path d="M0 0H90V8H0V0Z" fill="#214343"/>
<path d="M0 22H10V26H0V22Z" fill="#214343"/>
<path d="M9 22H10V26H9V22Z" fill="#00FFFF"/>
<path d="M8 14H10V18H8V14Z" fill="#00FFFF"/>
<path d="M0 30H10V34H0V30Z" fill="#214343"/>
<path d="M0 38H10V42H0V38Z" fill="#214343"/>
<path d="M9 38H10V42H9V38Z" fill="#00FFFF"/>
<path d="M7 30H10V34H7V30Z" fill="#00FFFF"/>
<path d="M3.555 6.07C3.29167 6.07 3.05833 6.02333 2.855 5.93C2.65167 5.83667 2.49167 5.7 2.375 5.52C2.26167 5.33667 2.205 5.115 2.205 4.855V4.73H2.74V4.855C2.74 5.10167 2.81333 5.28667 2.96 5.41C3.11 5.53333 3.30833 5.595 3.555 5.595C3.805 5.595 3.99333 5.54333 4.12 5.44C4.24667 5.33333 4.31 5.19667 4.31 5.03C4.31 4.92 4.28 4.83 4.22 4.76C4.16 4.69 4.075 4.635 3.965 4.595C3.855 4.55167 3.72333 4.51167 3.57 4.475L3.385 4.43C3.16167 4.37667 2.96667 4.31167 2.8 4.235C2.63667 4.155 2.51 4.05 2.42 3.92C2.33 3.79 2.285 3.62333 2.285 3.42C2.285 3.21333 2.335 3.03667 2.435 2.89C2.53833 2.74333 2.68 2.63 2.86 2.55C3.04 2.47 3.25167 2.43 3.495 2.43C3.73833 2.43 3.955 2.47167 4.145 2.555C4.33833 2.63833 4.49 2.76167 4.6 2.925C4.71 3.08833 4.765 3.29333 4.765 3.54V3.72H4.23V3.54C4.23 3.39 4.19833 3.26833 4.135 3.175C4.075 3.08167 3.99 3.01333 3.88 2.97C3.77 2.92667 3.64167 2.905 3.495 2.905C3.28167 2.905 3.115 2.95 2.995 3.04C2.87833 3.12667 2.82 3.24833 2.82 3.405C2.82 3.51167 2.845 3.6 2.895 3.67C2.94833 3.73667 3.025 3.79167 3.125 3.835C3.225 3.87833 3.35 3.91667 3.5 3.95L3.685 3.995C3.91167 4.045 4.11167 4.11 4.285 4.19C4.45833 4.26667 4.595 4.37167 4.695 4.505C4.795 4.63833 4.845 4.81 4.845 5.02C4.845 5.23 4.79167 5.41333 4.685 5.57C4.58167 5.72667 4.43333 5.85 4.24 5.94C4.04667 6.02667 3.81833 6.07 3.555 6.07Z" fill="white"/>
<path d="M5.93688 6V2.5H8.14187V2.99H6.47687V3.995H8.00187V4.485H6.47687V5.51H8.16688V6H5.93688Z" fill="white"/>
<path d="M10.5698 6.07C10.1398 6.07 9.79818 5.95 9.54484 5.71C9.29151 5.46667 9.16484 5.11667 9.16484 4.66V3.84C9.16484 3.38333 9.29151 3.035 9.54484 2.795C9.79818 2.55167 10.1398 2.43 10.5698 2.43C10.9998 2.43 11.3415 2.55167 11.5948 2.795C11.8515 3.035 11.9798 3.38333 11.9798 3.84V4.66C11.9798 5.11667 11.8515 5.46667 11.5948 5.71C11.3415 5.95 10.9998 6.07 10.5698 6.07ZM10.5698 5.585C10.8465 5.585 11.0598 5.505 11.2098 5.345C11.3598 5.18167 11.4348 4.96 11.4348 4.68V3.82C11.4348 3.54 11.3598 3.32 11.2098 3.16C11.0598 2.99667 10.8465 2.915 10.5698 2.915C10.2998 2.915 10.0882 2.99667 9.93484 3.16C9.78151 3.32 9.70484 3.54 9.70484 3.82V4.68C9.70484 4.96 9.78151 5.18167 9.93484 5.345C10.0882 5.505 10.2998 5.585 10.5698 5.585ZM10.7848 6.855C10.6415 6.855 10.5248 6.81 10.4348 6.72C10.3482 6.63333 10.3048 6.515 10.3048 6.365V6H10.8348V6.275C10.8348 6.375 10.8815 6.425 10.9748 6.425H11.2848V6.855H10.7848Z" fill="white"/>
<path d="M14.4541 6.07C14.1774 6.07 13.9391 6.02 13.7391 5.92C13.5424 5.82 13.3891 5.67667 13.2791 5.49C13.1724 5.3 13.1191 5.07 13.1191 4.8V2.5H13.6641V4.815C13.6641 5.06167 13.7324 5.25167 13.8691 5.385C14.0058 5.51833 14.2008 5.585 14.4541 5.585C14.7074 5.585 14.9024 5.51833 15.0391 5.385C15.1758 5.25167 15.2441 5.06167 15.2441 4.815V2.5H15.7841V4.8C15.7841 5.07 15.7308 5.3 15.6241 5.49C15.5174 5.67667 15.3641 5.82 15.1641 5.92C14.9641 6.02 14.7274 6.07 14.4541 6.07Z" fill="white"/>
<path d="M17.0138 6V2.5H19.2188V2.99H17.5538V3.995H19.0788V4.485H17.5538V5.51H19.2438V6H17.0138Z" fill="white"/>
<path d="M20.3318 6V2.5H21.3718L22.3218 5.64H22.4018V2.5H22.9368V6H21.8968L20.9468 2.855H20.8668V6H20.3318Z" fill="white"/>
<path d="M25.4918 6.07C25.0651 6.07 24.7268 5.95 24.4768 5.71C24.2268 5.46667 24.1018 5.11667 24.1018 4.66V3.84C24.1018 3.38333 24.2268 3.035 24.4768 2.795C24.7268 2.55167 25.0651 2.43 25.4918 2.43C25.9118 2.43 26.2351 2.54667 26.4618 2.78C26.6918 3.01333 26.8068 3.33167 26.8068 3.735V3.765H26.2718V3.72C26.2718 3.48333 26.2068 3.29 26.0768 3.14C25.9501 2.99 25.7551 2.915 25.4918 2.915C25.2251 2.915 25.0168 2.99667 24.8668 3.16C24.7168 3.32 24.6418 3.54333 24.6418 3.83V4.67C24.6418 4.95333 24.7168 5.17667 24.8668 5.34C25.0168 5.50333 25.2251 5.585 25.4918 5.585C25.7551 5.585 25.9501 5.51 26.0768 5.36C26.2068 5.20667 26.2718 5.01333 26.2718 4.78V4.695H26.8068V4.765C26.8068 5.16833 26.6918 5.48667 26.4618 5.72C26.2351 5.95333 25.9118 6.07 25.4918 6.07Z" fill="white"/>
<path d="M27.9296 6V2.5H30.1346V2.99H28.4696V3.995H29.9946V4.485H28.4696V5.51H30.1596V6H27.9296Z" fill="white"/>
<path d="M34.202 6.07C33.9454 6.07 33.717 6.02333 33.517 5.93C33.317 5.83667 33.1604 5.70167 33.047 5.525C32.937 5.34833 32.882 5.13833 32.882 4.895V4.805H33.407V4.885C33.407 5.105 33.4787 5.28 33.622 5.41C33.7687 5.53667 33.962 5.6 34.202 5.6C34.442 5.6 34.6287 5.54 34.762 5.42C34.8954 5.3 34.962 5.14833 34.962 4.965V4.92C34.962 4.79 34.9304 4.685 34.867 4.605C34.8037 4.525 34.7187 4.46667 34.612 4.43C34.5054 4.39 34.3854 4.37 34.252 4.37H33.617V3.765L34.847 3.04V2.97H32.967V2.5H35.417V3.21L34.242 3.91V3.98H34.457C34.6337 3.98 34.8004 4.01333 34.957 4.08C35.1137 4.14667 35.2404 4.24833 35.337 4.385C35.437 4.52167 35.487 4.695 35.487 4.905V4.965C35.487 5.18833 35.4337 5.38333 35.327 5.55C35.2204 5.71333 35.0704 5.84167 34.877 5.935C34.6837 6.025 34.4587 6.07 34.202 6.07Z" fill="white"/>
<path d="M37.4461 6V2.87H37.3661L36.7911 4.05H36.2361L37.0111 2.5H37.9711V6H37.4461Z" fill="white"/>
<path d="M38.964 6L39.964 2.5H40.914L41.909 6H41.354L41.124 5.175H39.754L39.524 6H38.964ZM39.889 4.675H40.989L40.479 2.835H40.399L39.889 4.675Z" fill="white"/>
<path d="M42.8643 4.955V4.485H44.3443V4.955H42.8643Z" fill="white"/>
<path d="M46.8461 6.07C46.4395 6.07 46.1145 5.955 45.8711 5.725C45.6311 5.49167 45.5111 5.14167 45.5111 4.675V3.825C45.5111 3.36833 45.6311 3.02167 45.8711 2.785C46.1145 2.54833 46.4395 2.43 46.8461 2.43C47.2561 2.43 47.5811 2.54833 47.8211 2.785C48.0645 3.02167 48.1861 3.36833 48.1861 3.825V4.675C48.1861 5.14167 48.0645 5.49167 47.8211 5.725C47.5811 5.955 47.2561 6.07 46.8461 6.07ZM46.8461 5.6C47.1228 5.6 47.3278 5.52167 47.4611 5.365C47.5945 5.205 47.6611 4.98167 47.6611 4.695V3.795C47.6611 3.50833 47.5895 3.28833 47.4461 3.135C47.3028 2.97833 47.1028 2.9 46.8461 2.9C46.5861 2.9 46.3861 2.98 46.2461 3.14C46.1061 3.29667 46.0361 3.515 46.0361 3.795V4.695C46.0361 4.98833 46.1028 5.21333 46.2361 5.37C46.3728 5.52333 46.5761 5.6 46.8461 5.6Z" fill="white"/>
<path d="M50.5938 6.07C50.1871 6.07 49.8621 5.955 49.6188 5.725C49.3788 5.49167 49.2588 5.14167 49.2588 4.675V3.825C49.2588 3.36833 49.3788 3.02167 49.6188 2.785C49.8621 2.54833 50.1871 2.43 50.5938 2.43C51.0038 2.43 51.3288 2.54833 51.5688 2.785C51.8121 3.02167 51.9338 3.36833 51.9338 3.825V4.675C51.9338 5.14167 51.8121 5.49167 51.5688 5.725C51.3288 5.955 51.0038 6.07 50.5938 6.07ZM50.5938 5.6C50.8705 5.6 51.0755 5.52167 51.2088 5.365C51.3421 5.205 51.4088 4.98167 51.4088 4.695V3.795C51.4088 3.50833 51.3371 3.28833 51.1938 3.135C51.0505 2.97833 50.8505 2.9 50.5938 2.9C50.3338 2.9 50.1338 2.98 49.9938 3.14C49.8538 3.29667 49.7838 3.515 49.7838 3.795V4.695C49.7838 4.98833 49.8505 5.21333 49.9838 5.37C50.1205 5.52333 50.3238 5.6 50.5938 5.6Z" fill="white"/>
<path d="M52.9714 6V5.605C52.9714 5.36167 53.0131 5.16167 53.0964 5.005C53.1798 4.84833 53.2981 4.72167 53.4514 4.625C53.6081 4.525 53.7964 4.44167 54.0164 4.375L54.3214 4.28C54.4581 4.23667 54.5748 4.18333 54.6714 4.12C54.7714 4.05667 54.8481 3.97833 54.9014 3.885C54.9548 3.78833 54.9814 3.67667 54.9814 3.55V3.53C54.9814 3.33333 54.9148 3.18 54.7814 3.07C54.6481 2.95667 54.4731 2.9 54.2564 2.9C54.0331 2.9 53.8514 2.96 53.7114 3.08C53.5748 3.2 53.5064 3.37667 53.5064 3.61V3.69H52.9864V3.615C52.9864 3.36167 53.0414 3.14833 53.1514 2.975C53.2614 2.79833 53.4131 2.66333 53.6064 2.57C53.7998 2.47667 54.0164 2.43 54.2564 2.43C54.4964 2.43 54.7098 2.475 54.8964 2.565C55.0864 2.655 55.2348 2.78167 55.3414 2.945C55.4514 3.10833 55.5064 3.3 55.5064 3.52V3.565C55.5064 3.79167 55.4614 3.98 55.3714 4.13C55.2814 4.28 55.1564 4.40333 54.9964 4.5C54.8398 4.59667 54.6581 4.67833 54.4514 4.745L54.1564 4.835C53.9998 4.88167 53.8731 4.93333 53.7764 4.99C53.6831 5.04333 53.6131 5.10833 53.5664 5.185C53.5231 5.26167 53.5014 5.36 53.5014 5.48V5.53H55.4764V6H52.9714Z" fill="white"/>
<path d="M58.0497 6.07C57.8097 6.07 57.6247 6.02667 57.4947 5.94C57.3681 5.85333 57.2731 5.75667 57.2097 5.65H57.1297V6H56.6247V2.5H57.1397V3.87H57.2197C57.2597 3.80333 57.3131 3.74 57.3797 3.68C57.4464 3.61667 57.5347 3.565 57.6447 3.525C57.7547 3.485 57.8897 3.465 58.0497 3.465C58.2564 3.465 58.4464 3.515 58.6197 3.615C58.7931 3.715 58.9314 3.86 59.0347 4.05C59.1381 4.24 59.1897 4.46667 59.1897 4.73V4.805C59.1897 5.07167 59.1364 5.3 59.0297 5.49C58.9264 5.67667 58.7881 5.82 58.6147 5.92C58.4447 6.02 58.2564 6.07 58.0497 6.07ZM57.8997 5.62C58.1231 5.62 58.3064 5.54833 58.4497 5.405C58.5964 5.26167 58.6697 5.05667 58.6697 4.79V4.745C58.6697 4.48167 58.5981 4.27833 58.4547 4.135C58.3114 3.99167 58.1264 3.92 57.8997 3.92C57.6797 3.92 57.4964 3.99167 57.3497 4.135C57.2064 4.27833 57.1347 4.48167 57.1347 4.745V4.79C57.1347 5.05667 57.2064 5.26167 57.3497 5.405C57.4964 5.54833 57.6797 5.62 57.8997 5.62Z" fill="white"/>
</svg>
