<svg width="769" height="769" viewBox="0 0 769 769" fill="none" xmlns="http://www.w3.org/2000/svg">
<path fill-rule="evenodd" clip-rule="evenodd" d="M384.5 768C596.301 768 768 596.301 768 384.5C768 172.699 596.301 1 384.5 1C172.699 1 1 172.699 1 384.5C1 596.301 172.699 768 384.5 768ZM384.5 769C596.854 769 769 596.854 769 384.5C769 172.147 596.854 0 384.5 0C172.147 0 0 172.147 0 384.5C0 596.854 172.147 769 384.5 769Z" fill="#356666"/>
<path d="M203.79 50.3952C203.79 55.5841 199.584 59.7904 194.395 59.7904C189.206 59.7904 185 55.5841 185 50.3952C185 45.2064 189.206 41 194.395 41C199.584 41 203.79 45.2064 203.79 50.3952Z" fill="#0A1C1C"/>
<path fill-rule="evenodd" clip-rule="evenodd" d="M194.395 57.7904C198.479 57.7904 201.79 54.4795 201.79 50.3952C201.79 46.311 198.479 43 194.395 43C190.311 43 187 46.311 187 50.3952C187 54.4795 190.311 57.7904 194.395 57.7904ZM194.395 59.7904C199.584 59.7904 203.79 55.5841 203.79 50.3952C203.79 45.2064 199.584 41 194.395 41C189.206 41 185 45.2064 185 50.3952C185 55.5841 189.206 59.7904 194.395 59.7904Z" fill="white"/>
<path d="M594 719.5C594 731.926 583.926 742 571.5 742C559.074 742 549 731.926 549 719.5C549 707.074 559.074 697 571.5 697C583.926 697 594 707.074 594 719.5Z" fill="#0A1C1C"/>
<path fill-rule="evenodd" clip-rule="evenodd" d="M571.5 740C582.822 740 592 730.822 592 719.5C592 708.178 582.822 699 571.5 699C560.178 699 551 708.178 551 719.5C551 730.822 560.178 740 571.5 740ZM571.5 742C583.926 742 594 731.926 594 719.5C594 707.074 583.926 697 571.5 697C559.074 697 549 707.074 549 719.5C549 731.926 559.074 742 571.5 742Z" fill="white"/>
</svg>
