<svg width="99" height="16" viewBox="0 0 99 16" fill="none" xmlns="http://www.w3.org/2000/svg">
<path d="M2.08766 5.88878C1.45066 5.88878 0.942124 5.70003 0.562062 5.32255C0.187354 4.93967 0 4.36805 0 3.60768V2.28109C0 1.52612 0.187354 0.957196 0.562062 0.574318C0.942124 0.191439 1.45066 0 2.08766 0C2.73002 0 3.23855 0.191439 3.61326 0.574318C3.99332 0.957196 4.18335 1.52612 4.18335 2.28109V3.60768C4.18335 4.36805 3.99332 4.93967 3.61326 5.32255C3.23855 5.70003 2.73002 5.88878 2.08766 5.88878ZM2.08766 5.29828C2.56943 5.29828 2.93075 5.15268 3.17164 4.86148C3.41252 4.57027 3.53296 4.16313 3.53296 3.64004V2.24065C3.53296 1.71756 3.40984 1.31311 3.16361 1.0273C2.91737 0.736097 2.55872 0.590496 2.08766 0.590496C1.6166 0.590496 1.25795 0.736097 1.01171 1.0273C0.770828 1.3185 0.650386 1.72295 0.650386 2.24065V3.64004C0.650386 4.16852 0.770828 4.57836 1.01171 4.86957C1.2526 5.15538 1.61125 5.29828 2.08766 5.29828Z" fill="#356666"/>
<path d="M7.23153 5.88878C6.59453 5.88878 6.086 5.70003 5.70594 5.32255C5.33123 4.93967 5.14387 4.36805 5.14387 3.60768V2.28109C5.14387 1.52612 5.33123 0.957196 5.70594 0.574318C6.086 0.191439 6.59453 0 7.23153 0C7.87389 0 8.38242 0.191439 8.75713 0.574318C9.13719 0.957196 9.32722 1.52612 9.32722 2.28109V3.60768C9.32722 4.36805 9.13719 4.93967 8.75713 5.32255C8.38242 5.70003 7.87389 5.88878 7.23153 5.88878ZM7.23153 5.29828C7.7133 5.29828 8.07463 5.15268 8.31551 4.86148C8.5564 4.57027 8.67684 4.16313 8.67684 3.64004V2.24065C8.67684 1.71756 8.55372 1.31311 8.30748 1.0273C8.06125 0.736097 7.7026 0.590496 7.23153 0.590496C6.76047 0.590496 6.40182 0.736097 6.15559 1.0273C5.9147 1.3185 5.79426 1.72295 5.79426 2.24065V3.64004C5.79426 4.16852 5.9147 4.57836 6.15559 4.86957C6.39647 5.15538 6.75512 5.29828 7.23153 5.29828Z" fill="#356666"/>
<path d="M11.8696 5.77553V0.550051H11.7491L10.6571 2.56421H9.95051L11.2914 0.113246H12.5199V5.77553H11.8696Z" fill="#356666"/>
<path d="M15.7315 5.88878C15.0945 5.88878 14.5859 5.70003 14.2059 5.32255C13.8312 4.93967 13.6438 4.36805 13.6438 3.60768V2.28109C13.6438 1.52612 13.8312 0.957196 14.2059 0.574318C14.5859 0.191439 15.0945 0 15.7315 0C16.3738 0 16.8824 0.191439 17.2571 0.574318C17.6371 0.957196 17.8272 1.52612 17.8272 2.28109V3.60768C17.8272 4.36805 17.6371 4.93967 17.2571 5.32255C16.8824 5.70003 16.3738 5.88878 15.7315 5.88878ZM15.7315 5.29828C16.2132 5.29828 16.5746 5.15268 16.8154 4.86148C17.0563 4.57027 17.1768 4.16313 17.1768 3.64004V2.24065C17.1768 1.71756 17.0537 1.31311 16.8074 1.0273C16.5612 0.736097 16.2025 0.590496 15.7315 0.590496C15.2604 0.590496 14.9018 0.736097 14.6555 1.0273C14.4146 1.3185 14.2942 1.72295 14.2942 2.24065V3.64004C14.2942 4.16852 14.4146 4.57836 14.6555 4.86957C14.8964 5.15538 15.2551 5.29828 15.7315 5.29828Z" fill="#356666"/>
<path d="M20.3695 5.77553V0.550051H20.249L19.157 2.56421H18.4504L19.7914 0.113246H21.0199V5.77553H20.3695Z" fill="#356666"/>
<path d="M24.2314 5.88878C23.5944 5.88878 23.0859 5.70003 22.7058 5.32255C22.3311 4.93967 22.1438 4.36805 22.1438 3.60768V2.28109C22.1438 1.52612 22.3311 0.957196 22.7058 0.574318C23.0859 0.191439 23.5944 0 24.2314 0C24.8738 0 25.3823 0.191439 25.757 0.574318C26.1371 0.957196 26.3271 1.52612 26.3271 2.28109V3.60768C26.3271 4.36805 26.1371 4.93967 25.757 5.32255C25.3823 5.70003 24.8738 5.88878 24.2314 5.88878ZM24.2314 5.29828C24.7132 5.29828 25.0745 5.15268 25.3154 4.86148C25.5563 4.57027 25.6767 4.16313 25.6767 3.64004V2.24065C25.6767 1.71756 25.5536 1.31311 25.3074 1.0273C25.0611 0.736097 24.7025 0.590496 24.2314 0.590496C23.7603 0.590496 23.4017 0.736097 23.1555 1.0273C22.9146 1.3185 22.7941 1.72295 22.7941 2.24065V3.64004C22.7941 4.16852 22.9146 4.57836 23.1555 4.86957C23.3963 5.15538 23.755 5.29828 24.2314 5.29828Z" fill="#356666"/>
<path d="M28.8694 5.77553V0.550051H28.749L27.657 2.56421H26.9504L28.2913 0.113246H29.5198V5.77553H28.8694Z" fill="#356666"/>
<path d="M32.7314 5.88878C32.0943 5.88878 31.5858 5.70003 31.2058 5.32255C30.831 4.93967 30.6437 4.36805 30.6437 3.60768V2.28109C30.6437 1.52612 30.831 0.957196 31.2058 0.574318C31.5858 0.191439 32.0943 0 32.7314 0C33.3737 0 33.8822 0.191439 34.2569 0.574318C34.637 0.957196 34.827 1.52612 34.827 2.28109V3.60768C34.827 4.36805 34.637 4.93967 34.2569 5.32255C33.8822 5.70003 33.3737 5.88878 32.7314 5.88878ZM32.7314 5.29828C33.2131 5.29828 33.5744 5.15268 33.8153 4.86148C34.0562 4.57027 34.1767 4.16313 34.1767 3.64004V2.24065C34.1767 1.71756 34.0535 1.31311 33.8073 1.0273C33.5611 0.736097 33.2024 0.590496 32.7314 0.590496C32.2603 0.590496 31.9016 0.736097 31.6554 1.0273C31.4145 1.3185 31.2941 1.72295 31.2941 2.24065V3.64004C31.2941 4.16852 31.4145 4.57836 31.6554 4.86957C31.8963 5.15538 32.2549 5.29828 32.7314 5.29828Z" fill="#356666"/>
<path d="M37.8752 5.88878C37.2382 5.88878 36.7297 5.70003 36.3496 5.32255C35.9749 4.93967 35.7876 4.36805 35.7876 3.60768V2.28109C35.7876 1.52612 35.9749 0.957196 36.3496 0.574318C36.7297 0.191439 37.2382 0 37.8752 0C38.5176 0 39.0261 0.191439 39.4008 0.574318C39.7809 0.957196 39.9709 1.52612 39.9709 2.28109V3.60768C39.9709 4.36805 39.7809 4.93967 39.4008 5.32255C39.0261 5.70003 38.5176 5.88878 37.8752 5.88878ZM37.8752 5.29828C38.357 5.29828 38.7183 5.15268 38.9592 4.86148C39.2001 4.57027 39.3205 4.16313 39.3205 3.64004V2.24065C39.3205 1.71756 39.1974 1.31311 38.9512 1.0273C38.7049 0.736097 38.3463 0.590496 37.8752 0.590496C37.4042 0.590496 37.0455 0.736097 36.7993 1.0273C36.5584 1.3185 36.4379 1.72295 36.4379 2.24065V3.64004C36.4379 4.16852 36.5584 4.57836 36.7993 4.86957C37.0402 5.15538 37.3988 5.29828 37.8752 5.29828Z" fill="#356666"/>
<path d="M42.5132 5.77553V0.550051H42.3928L41.3008 2.56421H40.5942L41.9351 0.113246H43.1636V5.77553H42.5132Z" fill="#356666"/>
<path d="M45.8693 5.77553V0.550051H45.7489L44.6569 2.56421H43.9503L45.2912 0.113246H46.5197V5.77553H45.8693Z" fill="#356666"/>
<path d="M49.2254 5.77553V0.550051H49.1049L48.0129 2.56421H47.3063L48.6472 0.113246H49.8758V5.77553H49.2254Z" fill="#356666"/>
<path d="M53.0873 5.88878C52.4503 5.88878 51.9418 5.70003 51.5617 5.32255C51.187 4.93967 50.9996 4.36805 50.9996 3.60768V2.28109C50.9996 1.52612 51.187 0.957196 51.5617 0.574318C51.9418 0.191439 52.4503 0 53.0873 0C53.7296 0 54.2382 0.191439 54.6129 0.574318C54.9929 0.957196 55.183 1.52612 55.183 2.28109V3.60768C55.183 4.36805 54.9929 4.93967 54.6129 5.32255C54.2382 5.70003 53.7296 5.88878 53.0873 5.88878ZM53.0873 5.29828C53.5691 5.29828 53.9304 5.15268 54.1713 4.86148C54.4121 4.57027 54.5326 4.16313 54.5326 3.64004V2.24065C54.5326 1.71756 54.4095 1.31311 54.1632 1.0273C53.917 0.736097 53.5584 0.590496 53.0873 0.590496C52.6162 0.590496 52.2576 0.736097 52.0113 1.0273C51.7705 1.3185 51.65 1.72295 51.65 2.24065V3.64004C51.65 4.16852 51.7705 4.57836 52.0113 4.86957C52.2522 5.15538 52.6109 5.29828 53.0873 5.29828Z" fill="#356666"/>
<path d="M57.7253 5.77553V0.550051H57.6049L56.5129 2.56421H55.8063L57.1472 0.113246H58.3757V5.77553H57.7253Z" fill="#356666"/>
<path d="M61.0814 5.77553V0.550051H60.9609L59.8689 2.56421H59.1623L60.5032 0.113246H61.7318V5.77553H61.0814Z" fill="#356666"/>
<path d="M64.9433 5.88878C64.3063 5.88878 63.7978 5.70003 63.4177 5.32255C63.043 4.93967 62.8556 4.36805 62.8556 3.60768V2.28109C62.8556 1.52612 63.043 0.957196 63.4177 0.574318C63.7978 0.191439 64.3063 0 64.9433 0C65.5857 0 66.0942 0.191439 66.4689 0.574318C66.8489 0.957196 67.039 1.52612 67.039 2.28109V3.60768C67.039 4.36805 66.8489 4.93967 66.4689 5.32255C66.0942 5.70003 65.5857 5.88878 64.9433 5.88878ZM64.9433 5.29828C65.4251 5.29828 65.7864 5.15268 66.0273 4.86148C66.2682 4.57027 66.3886 4.16313 66.3886 3.64004V2.24065C66.3886 1.71756 66.2655 1.31311 66.0192 1.0273C65.773 0.736097 65.4144 0.590496 64.9433 0.590496C64.4722 0.590496 64.1136 0.736097 63.8673 1.0273C63.6265 1.3185 63.506 1.72295 63.506 2.24065V3.64004C63.506 4.16852 63.6265 4.57836 63.8673 4.86957C64.1082 5.15538 64.4669 5.29828 64.9433 5.29828Z" fill="#356666"/>
<path d="M77.8303 5.77553V0.550051H77.7099L76.6179 2.56421H75.9113L77.2522 0.113246H78.4807V5.77553H77.8303Z" fill="#356666"/>
<path d="M81.1864 5.77553V0.550051H81.066L79.9739 2.56421H79.2674L80.6083 0.113246H81.8368V5.77553H81.1864Z" fill="#356666"/>
<path d="M85.0483 5.88878C84.4113 5.88878 83.9028 5.70003 83.5227 5.32255C83.148 4.93967 82.9607 4.36805 82.9607 3.60768V2.28109C82.9607 1.52612 83.148 0.957196 83.5227 0.574318C83.9028 0.191439 84.4113 0 85.0483 0C85.6907 0 86.1992 0.191439 86.5739 0.574318C86.954 0.957196 87.144 1.52612 87.144 2.28109V3.60768C87.144 4.36805 86.954 4.93967 86.5739 5.32255C86.1992 5.70003 85.6907 5.88878 85.0483 5.88878ZM85.0483 5.29828C85.5301 5.29828 85.8914 5.15268 86.1323 4.86148C86.3732 4.57027 86.4936 4.16313 86.4936 3.64004V2.24065C86.4936 1.71756 86.3705 1.31311 86.1243 1.0273C85.878 0.736097 85.5194 0.590496 85.0483 0.590496C84.5773 0.590496 84.2186 0.736097 83.9724 1.0273C83.7315 1.3185 83.611 1.72295 83.611 2.24065V3.64004C83.611 4.16852 83.7315 4.57836 83.9724 4.86957C84.2133 5.15538 84.5719 5.29828 85.0483 5.29828Z" fill="#356666"/>
<path d="M89.6863 5.77553V0.550051H89.5659L88.4739 2.56421H87.7673L89.1082 0.113246H90.3367V5.77553H89.6863Z" fill="#356666"/>
<path d="M93.0424 5.77553V0.550051H92.922L91.8299 2.56421H91.1234L92.4643 0.113246H93.6928V5.77553H93.0424Z" fill="#356666"/>
<path d="M96.9043 5.88878C96.2673 5.88878 95.7588 5.70003 95.3787 5.32255C95.004 4.93967 94.8167 4.36805 94.8167 3.60768V2.28109C94.8167 1.52612 95.004 0.957196 95.3787 0.574318C95.7588 0.191439 96.2673 0 96.9043 0C97.5467 0 98.0552 0.191439 98.4299 0.574318C98.81 0.957196 99 1.52612 99 2.28109V3.60768C99 4.36805 98.81 4.93967 98.4299 5.32255C98.0552 5.70003 97.5467 5.88878 96.9043 5.88878ZM96.9043 5.29828C97.3861 5.29828 97.7474 5.15268 97.9883 4.86148C98.2292 4.57027 98.3496 4.16313 98.3496 3.64004V2.24065C98.3496 1.71756 98.2265 1.31311 97.9803 1.0273C97.734 0.736097 97.3754 0.590496 96.9043 0.590496C96.4333 0.590496 96.0746 0.736097 95.8284 1.0273C95.5875 1.3185 95.467 1.72295 95.467 2.24065V3.64004C95.467 4.16852 95.5875 4.57836 95.8284 4.86957C96.0693 5.15538 96.4279 5.29828 96.9043 5.29828Z" fill="#356666"/>
<path d="M2.08766 16C1.45066 16 0.942124 15.8113 0.562062 15.4338C0.187354 15.0509 0 14.4793 0 13.7189V12.3923C0 11.6373 0.187354 11.0684 0.562062 10.6855C0.942124 10.3027 1.45066 10.1112 2.08766 10.1112C2.73002 10.1112 3.23855 10.3027 3.61326 10.6855C3.99332 11.0684 4.18335 11.6373 4.18335 12.3923V13.7189C4.18335 14.4793 3.99332 15.0509 3.61326 15.4338C3.23855 15.8113 2.73002 16 2.08766 16ZM2.08766 15.4095C2.56943 15.4095 2.93075 15.2639 3.17164 14.9727C3.41252 14.6815 3.53296 14.2744 3.53296 13.7513V12.3519C3.53296 11.8288 3.40984 11.4243 3.16361 11.1385C2.91737 10.8473 2.55872 10.7017 2.08766 10.7017C1.6166 10.7017 1.25795 10.8473 1.01171 11.1385C0.770828 11.4297 0.650386 11.8342 0.650386 12.3519V13.7513C0.650386 14.2797 0.770828 14.6896 1.01171 14.9808C1.2526 15.2666 1.61125 15.4095 2.08766 15.4095Z" fill="#356666"/>
<path d="M6.72568 15.8868V10.6613H6.60524L5.51323 12.6754H4.80664L6.14756 10.2245H7.37606V15.8868H6.72568Z" fill="#356666"/>
<path d="M10.0817 15.8868V10.6613H9.9613L8.86929 12.6754H8.1627L9.50362 10.2245H10.7321V15.8868H10.0817Z" fill="#356666"/>
<path d="M13.4378 15.8868V10.6613H13.3174L12.2254 12.6754H11.5188L12.8597 10.2245H14.0882V15.8868H13.4378Z" fill="#356666"/>
<path d="M16.7939 15.8868V10.6613H16.6734L15.5814 12.6754H14.8748L16.2157 10.2245H17.4443V15.8868H16.7939Z" fill="#356666"/>
<path d="M20.6558 16C20.0188 16 19.5103 15.8113 19.1302 15.4338C18.7555 15.0509 18.5681 14.4793 18.5681 13.7189V12.3923C18.5681 11.6373 18.7555 11.0684 19.1302 10.6855C19.5103 10.3027 20.0188 10.1112 20.6558 10.1112C21.2981 10.1112 21.8067 10.3027 22.1814 10.6855C22.5614 11.0684 22.7515 11.6373 22.7515 12.3923V13.7189C22.7515 14.4793 22.5614 15.0509 22.1814 15.4338C21.8067 15.8113 21.2981 16 20.6558 16ZM20.6558 15.4095C21.1376 15.4095 21.4989 15.2639 21.7398 14.9727C21.9807 14.6815 22.1011 14.2744 22.1011 13.7513V12.3519C22.1011 11.8288 21.978 11.4243 21.7317 11.1385C21.4855 10.8473 21.1269 10.7017 20.6558 10.7017C20.1847 10.7017 19.8261 10.8473 19.5798 11.1385C19.339 11.4297 19.2185 11.8342 19.2185 12.3519V13.7513C19.2185 14.2797 19.339 14.6896 19.5798 14.9808C19.8207 15.2666 20.1794 15.4095 20.6558 15.4095Z" fill="#356666"/>
<path d="M25.2938 15.8868V10.6613H25.1734L24.0814 12.6754H23.3748L24.7157 10.2245H25.9442V15.8868H25.2938Z" fill="#356666"/>
<path d="M29.1557 16C28.5187 16 28.0102 15.8113 27.6301 15.4338C27.2554 15.0509 27.0681 14.4793 27.0681 13.7189V12.3923C27.0681 11.6373 27.2554 11.0684 27.6301 10.6855C28.0102 10.3027 28.5187 10.1112 29.1557 10.1112C29.7981 10.1112 30.3066 10.3027 30.6813 10.6855C31.0614 11.0684 31.2514 11.6373 31.2514 12.3923V13.7189C31.2514 14.4793 31.0614 15.0509 30.6813 15.4338C30.3066 15.8113 29.7981 16 29.1557 16ZM29.1557 15.4095C29.6375 15.4095 29.9988 15.2639 30.2397 14.9727C30.4806 14.6815 30.601 14.2744 30.601 13.7513V12.3519C30.601 11.8288 30.4779 11.4243 30.2317 11.1385C29.9854 10.8473 29.6268 10.7017 29.1557 10.7017C28.6847 10.7017 28.326 10.8473 28.0798 11.1385C27.8389 11.4297 27.7185 11.8342 27.7185 12.3519V13.7513C27.7185 14.2797 27.8389 14.6896 28.0798 14.9808C28.3207 15.2666 28.6793 15.4095 29.1557 15.4095Z" fill="#356666"/>
<path d="M33.7937 15.8868V10.6613H33.6733L32.5813 12.6754H31.8747L33.2156 10.2245H34.4441V15.8868H33.7937Z" fill="#356666"/>
<path d="M45.3988 15.8868V10.6613H45.2784L44.1864 12.6754H43.4798L44.8207 10.2245H46.0492V15.8868H45.3988Z" fill="#356666"/>
<path d="M49.2608 16C48.6237 16 48.1152 15.8113 47.7352 15.4338C47.3604 15.0509 47.1731 14.4793 47.1731 13.7189V12.3923C47.1731 11.6373 47.3604 11.0684 47.7352 10.6855C48.1152 10.3027 48.6237 10.1112 49.2608 10.1112C49.9031 10.1112 50.4116 10.3027 50.7863 10.6855C51.1664 11.0684 51.3564 11.6373 51.3564 12.3923V13.7189C51.3564 14.4793 51.1664 15.0509 50.7863 15.4338C50.4116 15.8113 49.9031 16 49.2608 16ZM49.2608 15.4095C49.7425 15.4095 50.1038 15.2639 50.3447 14.9727C50.5856 14.6815 50.7061 14.2744 50.7061 13.7513V12.3519C50.7061 11.8288 50.5829 11.4243 50.3367 11.1385C50.0905 10.8473 49.7318 10.7017 49.2608 10.7017C48.7897 10.7017 48.431 10.8473 48.1848 11.1385C47.9439 11.4297 47.8235 11.8342 47.8235 12.3519V13.7513C47.8235 14.2797 47.9439 14.6896 48.1848 14.9808C48.4257 15.2666 48.7843 15.4095 49.2608 15.4095Z" fill="#356666"/>
<path d="M53.8988 15.8868V10.6613H53.7783L52.6863 12.6754H51.9797L53.3206 10.2245H54.5492V15.8868H53.8988Z" fill="#356666"/>
<path d="M57.2548 15.8868V10.6613H57.1344L56.0424 12.6754H55.3358L56.6767 10.2245H57.9052V15.8868H57.2548Z" fill="#356666"/>
<path d="M60.6109 15.8868V10.6613H60.4905L59.3984 12.6754H58.6919L60.0328 10.2245H61.2613V15.8868H60.6109Z" fill="#356666"/>
<path d="M64.4728 16C63.8358 16 63.3273 15.8113 62.9472 15.4338C62.5725 15.0509 62.3852 14.4793 62.3852 13.7189V12.3923C62.3852 11.6373 62.5725 11.0684 62.9472 10.6855C63.3273 10.3027 63.8358 10.1112 64.4728 10.1112C65.1152 10.1112 65.6237 10.3027 65.9984 10.6855C66.3785 11.0684 66.5685 11.6373 66.5685 12.3923V13.7189C66.5685 14.4793 66.3785 15.0509 65.9984 15.4338C65.6237 15.8113 65.1152 16 64.4728 16ZM64.4728 15.4095C64.9546 15.4095 65.3159 15.2639 65.5568 14.9727C65.7977 14.6815 65.9181 14.2744 65.9181 13.7513V12.3519C65.9181 11.8288 65.795 11.4243 65.5488 11.1385C65.3025 10.8473 64.9439 10.7017 64.4728 10.7017C64.0018 10.7017 63.6431 10.8473 63.3969 11.1385C63.156 11.4297 63.0355 11.8342 63.0355 12.3519V13.7513C63.0355 14.2797 63.156 14.6896 63.3969 14.9808C63.6378 15.2666 63.9964 15.4095 64.4728 15.4095Z" fill="#356666"/>
<path d="M77.3598 15.8868V10.6613H77.2394L76.1474 12.6754H75.4408L76.7817 10.2245H78.0102V15.8868H77.3598Z" fill="#356666"/>
<path d="M81.2218 16C80.5848 16 80.0762 15.8113 79.6962 15.4338C79.3215 15.0509 79.1341 14.4793 79.1341 13.7189V12.3923C79.1341 11.6373 79.3215 11.0684 79.6962 10.6855C80.0762 10.3027 80.5848 10.1112 81.2218 10.1112C81.8641 10.1112 82.3727 10.3027 82.7474 10.6855C83.1274 11.0684 83.3175 11.6373 83.3175 12.3923V13.7189C83.3175 14.4793 83.1274 15.0509 82.7474 15.4338C82.3727 15.8113 81.8641 16 81.2218 16ZM81.2218 15.4095C81.7035 15.4095 82.0649 15.2639 82.3058 14.9727C82.5466 14.6815 82.6671 14.2744 82.6671 13.7513V12.3519C82.6671 11.8288 82.544 11.4243 82.2977 11.1385C82.0515 10.8473 81.6928 10.7017 81.2218 10.7017C80.7507 10.7017 80.3921 10.8473 80.1458 11.1385C79.9049 11.4297 79.7845 11.8342 79.7845 12.3519V13.7513C79.7845 14.2797 79.9049 14.6896 80.1458 14.9808C80.3867 15.2666 80.7454 15.4095 81.2218 15.4095Z" fill="#356666"/>
<path d="M86.3656 16C85.7286 16 85.2201 15.8113 84.84 15.4338C84.4653 15.0509 84.278 14.4793 84.278 13.7189V12.3923C84.278 11.6373 84.4653 11.0684 84.84 10.6855C85.2201 10.3027 85.7286 10.1112 86.3656 10.1112C87.008 10.1112 87.5165 10.3027 87.8912 10.6855C88.2713 11.0684 88.4613 11.6373 88.4613 12.3923V13.7189C88.4613 14.4793 88.2713 15.0509 87.8912 15.4338C87.5165 15.8113 87.008 16 86.3656 16ZM86.3656 15.4095C86.8474 15.4095 87.2087 15.2639 87.4496 14.9727C87.6905 14.6815 87.8109 14.2744 87.8109 13.7513V12.3519C87.8109 11.8288 87.6878 11.4243 87.4416 11.1385C87.1954 10.8473 86.8367 10.7017 86.3656 10.7017C85.8946 10.7017 85.5359 10.8473 85.2897 11.1385C85.0488 11.4297 84.9284 11.8342 84.9284 12.3519V13.7513C84.9284 14.2797 85.0488 14.6896 85.2897 14.9808C85.5306 15.2666 85.8892 15.4095 86.3656 15.4095Z" fill="#356666"/>
<path d="M91.0037 15.8868V10.6613H90.8832L89.7912 12.6754H89.0846L90.4255 10.2245H91.654V15.8868H91.0037Z" fill="#356666"/>
<path d="M94.3597 15.8868V10.6613H94.2393L93.1473 12.6754H92.4407L93.7816 10.2245H95.0101V15.8868H94.3597Z" fill="#356666"/>
<path d="M97.7158 15.8868V10.6613H97.5954L96.5033 12.6754H95.7968L97.1377 10.2245H98.3662V15.8868H97.7158Z" fill="#356666"/>
</svg>
