<svg width="83" height="16" viewBox="0 0 83 16" fill="none" xmlns="http://www.w3.org/2000/svg">
<path d="M61.909 5.77553V0.550051H61.789L60.7011 2.56421H59.9971L61.333 0.113246H62.557V5.77553H61.909Z" fill="#356666"/>
<path d="M65.2526 5.77553V0.550051H65.1326L64.0447 2.56421H63.3407L64.6766 0.113246H65.9006V5.77553H65.2526Z" fill="#356666"/>
<path d="M69.1002 5.88878C68.4655 5.88878 67.9589 5.70003 67.5802 5.32255C67.2069 4.93967 67.0203 4.36805 67.0203 3.60768V2.28109C67.0203 1.52612 67.2069 0.957196 67.5802 0.574318C67.9589 0.191439 68.4655 0 69.1002 0C69.7401 0 70.2468 0.191439 70.6201 0.574318C70.9987 0.957196 71.1881 1.52612 71.1881 2.28109V3.60768C71.1881 4.36805 70.9987 4.93967 70.6201 5.32255C70.2468 5.70003 69.7401 5.88878 69.1002 5.88878ZM69.1002 5.29828C69.5801 5.29828 69.9401 5.15268 70.1801 4.86148C70.4201 4.57027 70.5401 4.16313 70.5401 3.64004V2.24065C70.5401 1.71756 70.4174 1.31311 70.1721 1.0273C69.9268 0.736097 69.5695 0.590496 69.1002 0.590496C68.6309 0.590496 68.2735 0.736097 68.0282 1.0273C67.7882 1.3185 67.6682 1.72295 67.6682 2.24065V3.64004C67.6682 4.16852 67.7882 4.57836 68.0282 4.86957C68.2682 5.15538 68.6255 5.29828 69.1002 5.29828Z" fill="#356666"/>
<path d="M73.721 5.77553V0.550051H73.601L72.513 2.56421H71.809L73.145 0.113246H74.3689V5.77553H73.721Z" fill="#356666"/>
<path d="M77.0645 5.77553V0.550051H76.9445L75.8566 2.56421H75.1526L76.4886 0.113246H77.7125V5.77553H77.0645Z" fill="#356666"/>
<path d="M80.9121 5.88878C80.2775 5.88878 79.7708 5.70003 79.3922 5.32255C79.0189 4.93967 78.8322 4.36805 78.8322 3.60768V2.28109C78.8322 1.52612 79.0189 0.957196 79.3922 0.574318C79.7708 0.191439 80.2775 0 80.9121 0C81.5521 0 82.0587 0.191439 82.432 0.574318C82.8107 0.957196 83 1.52612 83 2.28109V3.60768C83 4.36805 82.8107 4.93967 82.432 5.32255C82.0587 5.70003 81.5521 5.88878 80.9121 5.88878ZM80.9121 5.29828C81.3921 5.29828 81.7521 5.15268 81.9921 4.86148C82.232 4.57027 82.352 4.16313 82.352 3.64004V2.24065C82.352 1.71756 82.2294 1.31311 81.9841 1.0273C81.7387 0.736097 81.3814 0.590496 80.9121 0.590496C80.4428 0.590496 80.0855 0.736097 79.8402 1.0273C79.6002 1.3185 79.4802 1.72295 79.4802 2.24065V3.64004C79.4802 4.16852 79.6002 4.57836 79.8402 4.86957C80.0801 5.15538 80.4375 5.29828 80.9121 5.29828Z" fill="#356666"/>
<path d="M61.909 15.8868V10.6613H61.789L60.7011 12.6754H59.9971L61.333 10.2245H62.557V15.8868H61.909Z" fill="#356666"/>
<path d="M65.7566 16C65.1219 16 64.6153 15.8113 64.2367 15.4338C63.8633 15.0509 63.6767 14.4793 63.6767 13.7189V12.3923C63.6767 11.6373 63.8633 11.0684 64.2367 10.6855C64.6153 10.3027 65.1219 10.1112 65.7566 10.1112C66.3966 10.1112 66.9032 10.3027 67.2765 10.6855C67.6552 11.0684 67.8445 11.6373 67.8445 12.3923V13.7189C67.8445 14.4793 67.6552 15.0509 67.2765 15.4338C66.9032 15.8113 66.3966 16 65.7566 16ZM65.7566 15.4095C66.2366 15.4095 66.5965 15.2639 66.8365 14.9727C67.0765 14.6815 67.1965 14.2744 67.1965 13.7513V12.3519C67.1965 11.8288 67.0739 11.4243 66.8285 11.1385C66.5832 10.8473 66.2259 10.7017 65.7566 10.7017C65.2873 10.7017 64.93 10.8473 64.6846 11.1385C64.4446 11.4297 64.3247 11.8342 64.3247 12.3519V13.7513C64.3247 14.2797 64.4446 14.6896 64.6846 14.9808C64.9246 15.2666 65.2819 15.4095 65.7566 15.4095Z" fill="#356666"/>
<path d="M70.8813 16C70.2467 16 69.7401 15.8113 69.3614 15.4338C68.9881 15.0509 68.8014 14.4793 68.8014 13.7189V12.3923C68.8014 11.6373 68.9881 11.0684 69.3614 10.6855C69.7401 10.3027 70.2467 10.1112 70.8813 10.1112C71.5213 10.1112 72.0279 10.3027 72.4013 10.6855C72.7799 11.0684 72.9692 11.6373 72.9692 12.3923V13.7189C72.9692 14.4793 72.7799 15.0509 72.4013 15.4338C72.0279 15.8113 71.5213 16 70.8813 16ZM70.8813 15.4095C71.3613 15.4095 71.7213 15.2639 71.9613 14.9727C72.2013 14.6815 72.3213 14.2744 72.3213 13.7513V12.3519C72.3213 11.8288 72.1986 11.4243 71.9533 11.1385C71.708 10.8473 71.3506 10.7017 70.8813 10.7017C70.412 10.7017 70.0547 10.8473 69.8094 11.1385C69.5694 11.4297 69.4494 11.8342 69.4494 12.3519V13.7513C69.4494 14.2797 69.5694 14.6896 69.8094 14.9808C70.0494 15.2666 70.4067 15.4095 70.8813 15.4095Z" fill="#356666"/>
<path d="M75.5021 15.8868V10.6613H75.3821L74.2942 12.6754H73.5902L74.9261 10.2245H76.1501V15.8868H75.5021Z" fill="#356666"/>
<path d="M78.8457 15.8868V10.6613H78.7257L77.6378 12.6754H76.9338L78.2697 10.2245H79.4937V15.8868H78.8457Z" fill="#356666"/>
<path d="M82.1893 15.8868V10.6613H82.0693L80.9814 12.6754H80.2774L81.6133 10.2245H82.8373V15.8868H82.1893Z" fill="#356666"/>
<path d="M31.9105 5.77553V0.550051H31.7905L30.7025 2.56421H29.9986L31.3345 0.113246H32.5584V5.77553H31.9105Z" fill="#356666"/>
<path d="M35.2541 5.77553V0.550051H35.1341L34.0461 2.56421H33.3421L34.6781 0.113246H35.902V5.77553H35.2541Z" fill="#356666"/>
<path d="M39.1016 5.88878C38.467 5.88878 37.9603 5.70003 37.5817 5.32255C37.2084 4.93967 37.0217 4.36805 37.0217 3.60768V2.28109C37.0217 1.52612 37.2084 0.957196 37.5817 0.574318C37.9603 0.191439 38.467 0 39.1016 0C39.7416 0 40.2482 0.191439 40.6215 0.574318C41.0002 0.957196 41.1895 1.52612 41.1895 2.28109V3.60768C41.1895 4.36805 41.0002 4.93967 40.6215 5.32255C40.2482 5.70003 39.7416 5.88878 39.1016 5.88878ZM39.1016 5.29828C39.5816 5.29828 39.9416 5.15268 40.1816 4.86148C40.4216 4.57027 40.5415 4.16313 40.5415 3.64004V2.24065C40.5415 1.71756 40.4189 1.31311 40.1736 1.0273C39.9282 0.736097 39.5709 0.590496 39.1016 0.590496C38.6323 0.590496 38.275 0.736097 38.0297 1.0273C37.7897 1.3185 37.6697 1.72295 37.6697 2.24065V3.64004C37.6697 4.16852 37.7897 4.57836 38.0297 4.86957C38.2697 5.15538 38.627 5.29828 39.1016 5.29828Z" fill="#356666"/>
<path d="M43.7224 5.77553V0.550051H43.6024L42.5145 2.56421H41.8105L43.1464 0.113246H44.3704V5.77553H43.7224Z" fill="#356666"/>
<path d="M47.066 5.77553V0.550051H46.946L45.858 2.56421H45.1541L46.49 0.113246H47.714V5.77553H47.066Z" fill="#356666"/>
<path d="M50.9135 5.88878C50.2789 5.88878 49.7723 5.70003 49.3936 5.32255C49.0203 4.93967 48.8336 4.36805 48.8336 3.60768V2.28109C48.8336 1.52612 49.0203 0.957196 49.3936 0.574318C49.7723 0.191439 50.2789 0 50.9135 0C51.5535 0 52.0602 0.191439 52.4335 0.574318C52.8121 0.957196 53.0014 1.52612 53.0014 2.28109V3.60768C53.0014 4.36805 52.8121 4.93967 52.4335 5.32255C52.0602 5.70003 51.5535 5.88878 50.9135 5.88878ZM50.9135 5.29828C51.3935 5.29828 51.7535 5.15268 51.9935 4.86148C52.2335 4.57027 52.3535 4.16313 52.3535 3.64004V2.24065C52.3535 1.71756 52.2308 1.31311 51.9855 1.0273C51.7402 0.736097 51.3829 0.590496 50.9135 0.590496C50.4442 0.590496 50.0869 0.736097 49.8416 1.0273C49.6016 1.3185 49.4816 1.72295 49.4816 2.24065V3.64004C49.4816 4.16852 49.6016 4.57836 49.8416 4.86957C50.0816 5.15538 50.4389 5.29828 50.9135 5.29828Z" fill="#356666"/>
<path d="M31.9105 15.8868V10.6613H31.7905L30.7025 12.6754H29.9986L31.3345 10.2245H32.5584V15.8868H31.9105Z" fill="#356666"/>
<path d="M35.758 16C35.1234 16 34.6167 15.8113 34.2381 15.4338C33.8648 15.0509 33.6781 14.4793 33.6781 13.7189V12.3923C33.6781 11.6373 33.8648 11.0684 34.2381 10.6855C34.6167 10.3027 35.1234 10.1112 35.758 10.1112C36.398 10.1112 36.9046 10.3027 37.278 10.6855C37.6566 11.0684 37.8459 11.6373 37.8459 12.3923V13.7189C37.8459 14.4793 37.6566 15.0509 37.278 15.4338C36.9046 15.8113 36.398 16 35.758 16ZM35.758 15.4095C36.238 15.4095 36.598 15.2639 36.838 14.9727C37.078 14.6815 37.198 14.2744 37.198 13.7513V12.3519C37.198 11.8288 37.0753 11.4243 36.83 11.1385C36.5847 10.8473 36.2273 10.7017 35.758 10.7017C35.2887 10.7017 34.9314 10.8473 34.6861 11.1385C34.4461 11.4297 34.3261 11.8342 34.3261 12.3519V13.7513C34.3261 14.2797 34.4461 14.6896 34.6861 14.9808C34.9261 15.2666 35.2834 15.4095 35.758 15.4095Z" fill="#356666"/>
<path d="M40.8828 16C40.2481 16 39.7415 15.8113 39.3629 15.4338C38.9895 15.0509 38.8029 14.4793 38.8029 13.7189V12.3923C38.8029 11.6373 38.9895 11.0684 39.3629 10.6855C39.7415 10.3027 40.2481 10.1112 40.8828 10.1112C41.5228 10.1112 42.0294 10.3027 42.4027 10.6855C42.7814 11.0684 42.9707 11.6373 42.9707 12.3923V13.7189C42.9707 14.4793 42.7814 15.0509 42.4027 15.4338C42.0294 15.8113 41.5228 16 40.8828 16ZM40.8828 15.4095C41.3628 15.4095 41.7227 15.2639 41.9627 14.9727C42.2027 14.6815 42.3227 14.2744 42.3227 13.7513V12.3519C42.3227 11.8288 42.2 11.4243 41.9547 11.1385C41.7094 10.8473 41.3521 10.7017 40.8828 10.7017C40.4135 10.7017 40.0562 10.8473 39.8108 11.1385C39.5708 11.4297 39.4509 11.8342 39.4509 12.3519V13.7513C39.4509 14.2797 39.5708 14.6896 39.8108 14.9808C40.0508 15.2666 40.4081 15.4095 40.8828 15.4095Z" fill="#356666"/>
<path d="M45.5036 15.8868V10.6613H45.3836L44.2956 12.6754H43.5917L44.9276 10.2245H46.1515V15.8868H45.5036Z" fill="#356666"/>
<path d="M48.8471 15.8868V10.6613H48.7272L47.6392 12.6754H46.9352L48.2712 10.2245H49.4951V15.8868H48.8471Z" fill="#356666"/>
<path d="M52.1907 15.8868V10.6613H52.0707L50.9828 12.6754H50.2788L51.6148 10.2245H52.8387V15.8868H52.1907Z" fill="#356666"/>
<path d="M1.91191 5.77553V0.550051H1.79191L0.703966 2.56421H0L1.33594 0.113246H2.55988V5.77553H1.91191Z" fill="#356666"/>
<path d="M5.2555 5.77553V0.550051H5.1355L4.04756 2.56421H3.34359L4.67952 0.113246H5.90347V5.77553H5.2555Z" fill="#356666"/>
<path d="M9.10306 5.88878C8.46843 5.88878 7.96178 5.70003 7.58313 5.32255C7.20982 4.93967 7.02316 4.36805 7.02316 3.60768V2.28109C7.02316 1.52612 7.20982 0.957196 7.58313 0.574318C7.96178 0.191439 8.46843 0 9.10306 0C9.74303 0 10.2497 0.191439 10.623 0.574318C11.0016 0.957196 11.191 1.52612 11.191 2.28109V3.60768C11.191 4.36805 11.0016 4.93967 10.623 5.32255C10.2497 5.70003 9.74303 5.88878 9.10306 5.88878ZM9.10306 5.29828C9.58304 5.29828 9.94302 5.15268 10.183 4.86148C10.423 4.57027 10.543 4.16313 10.543 3.64004V2.24065C10.543 1.71756 10.4203 1.31311 10.175 1.0273C9.92969 0.736097 9.57237 0.590496 9.10306 0.590496C8.63375 0.590496 8.27643 0.736097 8.03111 1.0273C7.79112 1.3185 7.67113 1.72295 7.67113 2.24065V3.64004C7.67113 4.16852 7.79112 4.57836 8.03111 4.86957C8.2711 5.15538 8.62842 5.29828 9.10306 5.29828Z" fill="#356666"/>
<path d="M13.7238 5.77553V0.550051H13.6038L12.5159 2.56421H11.8119L13.1479 0.113246H14.3718V5.77553H13.7238Z" fill="#356666"/>
<path d="M17.0674 5.77553V0.550051H16.9474L15.8595 2.56421H15.1555L16.4915 0.113246H17.7154V5.77553H17.0674Z" fill="#356666"/>
<path d="M20.915 5.88878C20.2804 5.88878 19.7737 5.70003 19.3951 5.32255C19.0218 4.93967 18.8351 4.36805 18.8351 3.60768V2.28109C18.8351 1.52612 19.0218 0.957196 19.3951 0.574318C19.7737 0.191439 20.2804 0 20.915 0C21.555 0 22.0616 0.191439 22.4349 0.574318C22.8136 0.957196 23.0029 1.52612 23.0029 2.28109V3.60768C23.0029 4.36805 22.8136 4.93967 22.4349 5.32255C22.0616 5.70003 21.555 5.88878 20.915 5.88878ZM20.915 5.29828C21.395 5.29828 21.755 5.15268 21.9949 4.86148C22.2349 4.57027 22.3549 4.16313 22.3549 3.64004V2.24065C22.3549 1.71756 22.2323 1.31311 21.9869 1.0273C21.7416 0.736097 21.3843 0.590496 20.915 0.590496C20.4457 0.590496 20.0884 0.736097 19.843 1.0273C19.6031 1.3185 19.4831 1.72295 19.4831 2.24065V3.64004C19.4831 4.16852 19.6031 4.57836 19.843 4.86957C20.083 5.15538 20.4403 5.29828 20.915 5.29828Z" fill="#356666"/>
<path d="M1.91191 15.8868V10.6613H1.79191L0.703966 12.6754H0L1.33594 10.2245H2.55988V15.8868H1.91191Z" fill="#356666"/>
<path d="M5.75947 16C5.12484 16 4.61819 15.8113 4.23955 15.4338C3.86623 15.0509 3.67957 14.4793 3.67957 13.7189V12.3923C3.67957 11.6373 3.86623 11.0684 4.23955 10.6855C4.61819 10.3027 5.12484 10.1112 5.75947 10.1112C6.39944 10.1112 6.90608 10.3027 7.2794 10.6855C7.65805 11.0684 7.84737 11.6373 7.84737 12.3923V13.7189C7.84737 14.4793 7.65805 15.0509 7.2794 15.4338C6.90608 15.8113 6.39944 16 5.75947 16ZM5.75947 15.4095C6.23945 15.4095 6.59943 15.2639 6.83942 14.9727C7.07941 14.6815 7.1994 14.2744 7.1994 13.7513V12.3519C7.1994 11.8288 7.07674 11.4243 6.83142 11.1385C6.5861 10.8473 6.22878 10.7017 5.75947 10.7017C5.29016 10.7017 4.93285 10.8473 4.68752 11.1385C4.44754 11.4297 4.32754 11.8342 4.32754 12.3519V13.7513C4.32754 14.2797 4.44754 14.6896 4.68752 14.9808C4.92751 15.2666 5.28483 15.4095 5.75947 15.4095Z" fill="#356666"/>
<path d="M10.8842 16C10.2496 16 9.74295 15.8113 9.3643 15.4338C8.99098 15.0509 8.80433 14.4793 8.80433 13.7189V12.3923C8.80433 11.6373 8.99098 11.0684 9.3643 10.6855C9.74295 10.3027 10.2496 10.1112 10.8842 10.1112C11.5242 10.1112 12.0308 10.3027 12.4042 10.6855C12.7828 11.0684 12.9721 11.6373 12.9721 12.3923V13.7189C12.9721 14.4793 12.7828 15.0509 12.4042 15.4338C12.0308 15.8113 11.5242 16 10.8842 16ZM10.8842 15.4095C11.3642 15.4095 11.7242 15.2639 11.9642 14.9727C12.2042 14.6815 12.3242 14.2744 12.3242 13.7513V12.3519C12.3242 11.8288 12.2015 11.4243 11.9562 11.1385C11.7109 10.8473 11.3535 10.7017 10.8842 10.7017C10.4149 10.7017 10.0576 10.8473 9.81228 11.1385C9.57229 11.4297 9.45229 11.8342 9.45229 12.3519V13.7513C9.45229 14.2797 9.57229 14.6896 9.81228 14.9808C10.0523 15.2666 10.4096 15.4095 10.8842 15.4095Z" fill="#356666"/>
<path d="M15.505 15.8868V10.6613H15.385L14.2971 12.6754H13.5931L14.929 10.2245H16.153V15.8868H15.505Z" fill="#356666"/>
<path d="M18.8486 15.8868V10.6613H18.7286L17.6407 12.6754H16.9367L18.2726 10.2245H19.4966V15.8868H18.8486Z" fill="#356666"/>
<path d="M22.1922 15.8868V10.6613H22.0722L20.9842 12.6754H20.2803L21.6162 10.2245H22.8401V15.8868H22.1922Z" fill="#356666"/>
</svg>
