<svg width="27" height="22" viewBox="0 0 27 22" fill="none" xmlns="http://www.w3.org/2000/svg">
<path d="M0 1C0 0.447716 0.447715 0 1 0L9.43381 0C9.78507 0 10.1106 0.184299 10.2913 0.485504L12.7087 4.5145C12.8894 4.8157 13.2149 5 13.5662 5H26C26.5523 5 27 5.44772 27 6V21C27 21.5523 26.5523 22 26 22H0.999999C0.447715 22 0 21.5523 0 21L0 1Z" fill="#356666"/>
<path fill-rule="evenodd" clip-rule="evenodd" d="M23.4417 5H26C26.5523 5 27 5.44772 27 6V21C27 21.5523 26.5523 22 26 22H0.999999C0.447715 22 0 21.5523 0 21L0 1C0 0.447716 0.447715 0 1 0L9.43381 0C9.78507 0 10.1106 0.184299 10.2913 0.485504L10.9 1.5H19.5858C19.9836 1.5 20.3651 1.65804 20.6464 1.93934L23.0607 4.35355C23.242 4.53488 23.3721 4.75786 23.4417 5ZM26 6V21H0.999999L1 1H9.43381L11.8512 5.02899C12.2127 5.6314 12.8637 6 13.5662 6H26ZM22.2929 5L19.9393 2.64645C19.8456 2.55268 19.7184 2.5 19.5858 2.5H11.5L12.7087 4.5145C12.8894 4.8157 13.2149 5 13.5662 5H22.2929Z" fill="#39A0A0"/>
</svg>
