<svg width="3293" height="48" viewBox="0 0 3293 48" fill="none" xmlns="http://www.w3.org/2000/svg">
<rect x="1260" y="19" width="772" height="28" fill="#071010"/>
<rect width="772" height="1" transform="matrix(1 0 0 -1 1260 19)" fill="#356666"/>
<path d="M1981 48H3293L3246.66 8L2027.44 8L1981 48Z" fill="#0A1B1B"/>
<path d="M2027.81 9H3246.29L3291.47 48H3293L3246.66 8L2027.44 8L1981 48H1982.54L2027.81 9Z" fill="#356666"/>
<path d="M0 48H1311.03L1264.68 8H46.4329L0 48Z" fill="#0A1B1B"/>
<path d="M46.8043 9H1264.31L1309.5 48H1311.03L1264.68 8H46.4329L0 48H1.53216L46.8043 9Z" fill="#356666"/>
<path d="M2091 0H2077L2058 16H2072L2091 0Z" fill="#071010"/>
<path fill-rule="evenodd" clip-rule="evenodd" d="M2091 0L2072 16H2058L2077 0H2091ZM2088.26 1L2071.64 15H2060.74L2077.37 1H2088.26Z" fill="#356666"/>
<path d="M2176 0H2162L2143 16H2157L2176 0Z" fill="#071010"/>
<path fill-rule="evenodd" clip-rule="evenodd" d="M2176 0L2157 16H2143L2162 0H2176ZM2173.26 1L2156.64 15H2145.74L2162.37 1H2173.26Z" fill="#356666"/>
<path d="M2261 0H2247L2228 16H2242L2261 0Z" fill="#071010"/>
<path fill-rule="evenodd" clip-rule="evenodd" d="M2261 0L2242 16H2228L2247 0H2261ZM2258.26 1L2241.64 15H2230.74L2247.37 1H2258.26Z" fill="#356666"/>
<path d="M2346 0H2332L2313 16H2327L2346 0Z" fill="#071010"/>
<path fill-rule="evenodd" clip-rule="evenodd" d="M2346 0L2327 16H2313L2332 0H2346ZM2343.26 1L2326.64 15H2315.74L2332.37 1H2343.26Z" fill="#356666"/>
<path d="M1203 0H1217L1236 16H1222L1203 0Z" fill="#071010"/>
<path fill-rule="evenodd" clip-rule="evenodd" d="M1203 0L1222 16H1236L1217 0H1203ZM1205.74 1L1222.37 15H1233.26L1216.64 1H1205.74Z" fill="#356666"/>
<path d="M1118 0H1132L1151 16H1137L1118 0Z" fill="#071010"/>
<path fill-rule="evenodd" clip-rule="evenodd" d="M1118 0L1137 16H1151L1132 0H1118ZM1120.74 1L1137.37 15H1148.26L1131.64 1H1120.74Z" fill="#356666"/>
<path d="M1033 0H1047L1066 16H1052L1033 0Z" fill="#071010"/>
<path fill-rule="evenodd" clip-rule="evenodd" d="M1033 0L1052 16H1066L1047 0H1033ZM1035.74 1L1052.37 15H1063.26L1046.64 1H1035.74Z" fill="#356666"/>
<path d="M948.001 0H962.001L981.001 16H967.001L948.001 0Z" fill="#071010"/>
<path fill-rule="evenodd" clip-rule="evenodd" d="M948.001 0L967.001 16H981.001L962.001 0H948.001ZM950.741 1L967.366 15H978.261L961.636 1H950.741Z" fill="#356666"/>
<path d="M1302.87 19H1290L1322.64 47H1335.51L1302.87 19Z" fill="#0A1B1B"/>
<path d="M1369.43 47H1356.3L1323 19H1336.13L1369.43 47Z" fill="#0A1B1B"/>
<path d="M1402.51 47H1389.64L1357 19H1369.87L1402.51 47Z" fill="#0A1B1B"/>
<path d="M1436.43 47H1423.3L1390 19H1403.13L1436.43 47Z" fill="#0A1B1B"/>
<path d="M1469.51 47H1456.64L1424 19H1436.87L1469.51 47Z" fill="#0A1B1B"/>
<path d="M1503.43 47H1490.3L1457 19H1470.13L1503.43 47Z" fill="#0A1B1B"/>
<path d="M1536.51 47H1523.64L1491 19H1503.87L1536.51 47Z" fill="#0A1B1B"/>
<path d="M1768.37 47H1755.5L1788.13 19H1801L1768.37 47Z" fill="#0A1B1B"/>
<path d="M1801.7 47H1788.57L1821.87 19H1835L1801.7 47Z" fill="#0A1B1B"/>
<path d="M1835.37 47H1822.5L1855.13 19H1868L1835.37 47Z" fill="#0A1B1B"/>
<path d="M1868.7 47H1855.57L1888.87 19H1902L1868.7 47Z" fill="#0A1B1B"/>
<path d="M1902.37 47H1889.5L1922.13 19H1935L1902.37 47Z" fill="#0A1B1B"/>
<path d="M1935.7 47H1922.57L1955.87 19H1969L1935.7 47Z" fill="#0A1B1B"/>
<path d="M1969.37 47H1956.5L1989.13 19H2002L1969.37 47Z" fill="#0A1B1B"/>
</svg>
