<svg width="677" height="179" viewBox="0 0 677 179" fill="none" xmlns="http://www.w3.org/2000/svg">
<path d="M375.931 369L528.963 261.802V129.894L375.931 0V369Z" fill="#071010"/>
<path d="M0.00948773 182.989C0.485112 154.723 18.321 136.353 48.0476 135.582C79.7953 134.753 97.2154 151.701 99.1768 183.107C97.9884 215.522 81.7574 233.299 49.3555 233.299C16.9536 233.299 -0.466136 213.329 0.00948773 182.989Z" fill="#071010"/>
<path d="M577.832 182.989C578.308 154.723 596.144 136.353 625.87 135.582C657.619 134.753 674.979 151.701 677 183.107C675.811 215.522 659.58 233.299 627.178 233.299C594.776 233.299 577.357 213.329 577.832 182.989Z" fill="#071010"/>
<path d="M301.079 369L148.046 261.802V129.894L301.079 0V369Z" fill="#071010"/>
</svg>
