<svg width="1763" height="70" viewBox="0 0 1763 70" fill="none" xmlns="http://www.w3.org/2000/svg">
<g clip-path="url(#clip0_547_2970)">
<path d="M0 0L22.9935 37.5H920.239L941.233 70H1370.61L1439.09 0H0Z" fill="#72FFFD" fill-opacity="0.05"/>
<path d="M1457.09 19H1483.08L1446.59 57H1420.6L1457.09 19Z" fill="#72FFFD" fill-opacity="0.05"/>
<path d="M1539.06 19H1513.07L1476.58 57H1502.57L1539.06 19Z" fill="#72FFFD" fill-opacity="0.05"/>
<path d="M1569.05 19H1595.05L1558.56 57H1532.57L1569.05 19Z" fill="#72FFFD" fill-opacity="0.05"/>
<path d="M1651.03 19H1625.04L1588.55 57H1614.54L1651.03 19Z" fill="#72FFFD" fill-opacity="0.05"/>
<path d="M1681.02 19H1707.02L1670.53 57H1644.53L1681.02 19Z" fill="#72FFFD" fill-opacity="0.05"/>
<path d="M1763 19H1737.01L1700.52 57H1726.51L1763 19Z" fill="#72FFFD" fill-opacity="0.05"/>
</g>
<defs>
<clipPath id="clip0_547_2970">
<rect width="1763" height="70" fill="white"/>
</clipPath>
</defs>
</svg>
